{
.appVersion = "3151";
.formatVersion = 3;
classes = (
{
code = "dotabove-ar
dotabove-ar.reh
dotbelow-ar
twodotsverticalabove-ar
twodotsverticalbelow-ar
threedotsupabove-ar
threedotshorizontalabove-ar
threedotshorizontalabove-ar.alt
";
name = tashkil;
},
{
code = "alef-ar
behDotless-ar
hah-ar
dal-ar
reh-ar
seen-ar
sad-ar
tah-ar
ain-ar
fehDotless-ar
qafDotless-ar
kaf-ar
lam-ar
meem-ar
noonghunna-ar
heh-ar
waw-ar
alefMaksura-ar

threedots-ar

fehDotless_alef-ar
lam_alef-ar
lam_lam_heh-ar
";
name = isol;
},
{
code = "behDotless-ar.init
behDotless-ar.init.high
hah-ar.init
seen-ar.init
sad-ar.init
tah-ar.init
ain-ar.init
fehDotless-ar.init
kaf-ar.init
lam-ar.init
lam-ar.init.hah
meem-ar.init
meem-ar.init.round
heh-ar.init
heh-ar.init.round
";
name = init;
},
{
code = "alef-ar.fina
alef-ar.fina.short
behDotless-ar.fina
hah-ar.fina
dal-ar.fina
reh-ar.fina
seen-ar.fina
sad-ar.fina
tah-ar.fina
ain-ar.fina
fehDotless-ar.fina
qafDotless-ar.fina
kaf-ar.fina
lam-ar.fina
lam-ar.fina.short
meem-ar.fina
meem-ar.fina.round
noonghunna-ar.fina
heh-ar.fina
waw-ar.fina
waw-ar.fina.round
alefMaksura-ar.fina
alefMaksura-ar.fina.salt
alefMaksura-ar.fina.tooth
alefMaksura-ar.fina.tooth2
alefMaksura-ar.fina.tooth2.salt
yehbarree-ar.fina
yehbarree-ar.fina.baseline
lam_alef-ar.fina
";
name = fina;
},
{
code = "meem-ar.medi
meem-ar.fina
waw-ar.fina
reh-ar.fina
noonghunna-ar.fina
hah-ar.medi
hah-ar.fina";
name = aftermeem;
}
);
customParameters = (
{
name = "Write lastChange";
value = 0;
},
{
name = "Don't use Production Names";
value = 1;
},
{
name = "Disable Subroutines";
value = 1;
},
{
name = "Propagate Anchors";
value = 0;
},
{
name = "Write DisplayStrings";
value = 0;
},
{
name = "Use Line Breaks";
value = 1;
},
{
name = "Color Palettes";
value = (
(
(144,41,0,255),
(212,175,55,255),
(71,28,1,255),
(144,41,0,242),
(154,115,18,255)
)
);
},
{
name = unicodeRanges;
value = (
13
);
},
{
name = codePageRanges;
value = (
"1256",
"864"
);
},
{
name = fsType;
value = (
);
},
{
name = glyphOrder;

glyphs = (
{
glyphname = .notdef;
layers = (
{
layerId = m01;
shapes = (
{
closed = 1;
nodes = (
(391,0,l),
(391,625,l),
(49,625,l),
(49,0,l)
);
},
{
closed = 1;
nodes = (
(98,576,l),
(342,576,l),
(342,49,l),
(98,49,l)
);
},
{
closed = 1;
nodes = (
(122,49,l),
(366,576,l),
(318,576,l),
(73,49,l)
);
},
{
closed = 1;
nodes = (
(318,49,l),
(366,49,l),
(122,576,l),
(73,576,l)
);
}
);
width = 440;
}
);
},
{
glyphname = "alef-ar";
layers = (
{
anchors = (
{
name = bottom.hamza;
pos = (260,-113);
},
{
name = damma;
pos = (-52,59);
},
{
name = fatha;
pos = (178,536);
},
{
name = kasra;
pos = (260,-113);
},
{
name = top.hamza;
pos = (178,536);
},
{
name = top.madda;
pos = (-72,536);
}
);
backgroundImage = {
alpha = 80;
imagePath = "images/MS-ADD-01116-000-00003.jpg";
locked = 1;
pos = (-3675,-1930);
scale = (5,5);
};
layerId = m01;
shapes = (
{
closed = 1;
nodes = (
(401,-42,o),
(529,18,o),
(577,129,cs),
(582,141,o),
(572,148,o),
(563,139,cs),
(518,94,o),
(392,73,o),
(295,87,cs),
(212,99,o),
(137,138,o),
(113,219,cs),
(85,315,o),
(108,543,o),
(103,676,cs),
(102,703,o),
(87,699,o),
(80,685,cs),
(67,657,o),
(27,618,o),
(5,604,cs),
(-5,597,o),
(4,579,o),
(6,548,cs),
(12,441,o),
(13,281,o),
(14,196,cs),
(16,57,o),
(86,-40,o),
(262,-41,cs)
);
}
);
width = 578;
}
);
metricLeft = "=0";
metricRight = "=0";
unicode = 1575;
},
{
glyphname = "alef-ar.fina";
layers = (
{
anchors = (
{
name = bottom.hamza;
pos = (66,-76);
},
{
name = damma;
pos = (-74,66);
},
{
name = fatha;
pos = (168,559);
},
{
name = kasra;
pos = (66,-76);
},
{
name = top.hamza;
pos = (168,559);
},
{
name = top.madda;
pos = (-93,559);
}
);
backgroundImage = {
alpha = 80;
imagePath = "images/MS-ADD-01116-000-00005.jpg";
locked = 1;
pos = (-4004,-2880);
scale = (5,5);
};
layerId = m01;
shapes = (
{
closed = 1;
nodes = (
(111,0,l),
(111,110,l),
(103,110,o),
(97,140,o),
(97,159,cs),
(93,328,o),
(88,519,o),
(87,680,cs),
(87,700,o),
(72,700,o),
(66,689,cs),
(46,653,o),
(21,632,o),
(-5,616,cs),
(-22,605,o),
(-19,587,o),
(-13,520,cs),
(-2,400,o),
(-5,239,o),
(0,55,cs),
(1,20,o),
(15,0,o),
(64,0,cs)
);
}
);
width = 97;
}
);
metricLeft = "=0@55";
metricRight = "=0@157";
},
{
glyphname = "alef-ar.fina.short";
layers = (
{
anchors = (
{
name = bottom.hamza;
pos = (49,-76);
},
{
name = damma;
pos = (-91,66);
},
{
name = fatha;
pos = (151,511);
},
{
name = kasra;
pos = (49,-76);
},
{
name = top.hamza;
pos = (151,511);
},
{
name = top.madda;
pos = (-110,511);
}
);
backgroundImage = {
alpha = 80;
imagePath = "images/MS-ADD-01116-000-00019.jpg";
locked = 1;
pos = (-3626,-1830);
scale = (5,5);
};
layerId = m01;
shapes = (
{
closed = 1;
nodes = (
(109,0,l),
(109,120,l),
(101,120,o),
(88,124,o),
(88,159,cs),
(88,422,o),
(93,540,o),
(70,604,cs),
(63,624,o),
(53,624,o),
(47,613,cs),
(27,577,o),
(4,543,o),
(-22,532,cs),
(-40,524,o),
(-15,511,o),
(-12,443,cs),
(-9,381,o),
(0,179,o),
(0,55,cs),
(0,20,o),
(-2,0,o),
(47,0,cs)
);
}
);
width = 88;
}
);
metricLeft = "=0@55";
metricRight = "=0@159";
},
{
glyphname = "behDotless-ar";
layers = (
{
anchors = (
{
name = bottom;
pos = (996,13);
},
{
name = damma;
pos = (-51,68);
},
{
name = fatha;
pos = (904,356);
},
{
name = kasra;
pos = (721,-71);
},
{
name = top;
pos = (858,228);
}
);
backgroundImage = {
alpha = 80;
imagePath = "images/MS-ADD-01116-000-00043.jpg";
locked = 1;
pos = (-2761,-2863);
scale = (5,5);
};
layerId = m01;
shapes = (
{
closed = 1;
nodes = (
(507,-14,o),
(603,-13,o),
(915,0,cs),
(996,4,o),
(1007,20,o),
(1007,78,cs),
(1007,130,o),
(974,226,o),
(931,278,cs),
(924,286,o),
(916,292,o),
(909,274,cs),
(890,223,o),
(842,184,o),
(808,182,cs),
(794,181,o),
(796,163,o),
(808,159,cs),
(842,147,o),
(867,127,o),
(878,106,c),
(681,91,o),
(471,93,o),
(177,104,cs),
(123,106,o),
(115,114,o),
(106,118,cs),
(97,122,o),
(87,121,o),
(85,117,cs),
(60,67,o),
(31,39,o),
(7,32,cs),
(-6,28,o),
(0,16,o),
(11,13,cs),
(55,0,o),
(109,-4,o),
(159,-5,cs)
);
}
);
width = 1007;
}
);
metricLeft = "=0";
metricRight = "=0";
unicode = 1646;
},
{
glyphname = "behDotless-ar.fina";
layers = (
{
anchors = (
{
name = bottom;
pos = (871,-39);
},
{
name = damma;
pos = (-47,68);
},
{
name = fatha;
pos = (895,398);
},
{
name = kasra;
pos = (749,-72);
},
{
name = top;
pos = (889,286);
}
);
backgroundImage = {
alpha = 80;
angle = -0.4;
imagePath = "images/MS-ADD-01116-000-00025.jpg";
locked = 1;
pos = (-2520,-2714);
scale = (5,5);
};
layerId = m01;
shapes = (
{
closed = 1;
nodes = (
(437,-6,o),
(569,-1,o),
(997,0,c),
(997,110,l),
(987,110,o),
(983,123,o),
(981,157,cs),
(980,179,o),
(969,283,o),
(966,341,cs),
(965,364,o),
(950,359,o),
(943,344,cs),
(915,288,o),
(866,249,o),
(835,249,cs),
(817,249,o),
(814,228,o),
(829,218,cs),
(863,191,o),
(873,158,o),
(873,130,cs),
(873,103,o),
(839,101,o),
(810,100,cs),
(463,94,o),
(412,96,o),
(195,100,cs),
(151,101,o),
(126,101,o),
(87,119,cs),
(79,123,o),
(71,127,o),
(67,110,cs),
(59,79,o),
(39,50,o),
(13,38,cs),
(-3,31,o),
(-4,21,o),
(10,13,cs),
(38,-3,o),
(79,-9,o),
(139,-8,cs)
);
}
);
width = 981;
}
);
metricLeft = "=0";
metricRight = "=0@157";
},
{
glyphname = "behDotless-ar.medi";
layers = (
{
anchors = (
{
name = bottom;
pos = (44,-38);
},
{
name = damma;
pos = (-2,190);
},
{
name = entry;
pos = (126,0);
},
{
name = exit;
},
{
name = fatha;
pos = (65,423);
},
{
name = kasra;
pos = (77,-77);
},
{
name = top;
pos = (66,312);
}
);
backgroundImage = {
alpha = 80;
imagePath = "images/MS-ADD-01116-000-00008.jpg";
locked = 1;
pos = (-3891,-2872);
scale = (5,5);
};
layerId = m01;
shapes = (
{
closed = 1;
nodes = (
(143,0,l),
(143,110,l),
(131,110,o),
(128,134,o),
(126,157,cs),
(120,234,o),
(116,289,o),
(112,341,cs),
(111,360,o),
(97,359,o),
(91,351,cs),
(60,305,o),
(50,275,o),
(22,264,cs),
(9,259,o),
(7,252,o),
(8,242,cs),
(13,211,o),
(17,174,o),
(19,110,c),
(-20,110,l),
(-20,0,l)
);
}
);
width = 126;
}
);
metricLeft = "=-20@0";
metricRight = "=0@157";
},
{
glyphname = "behDotless-ar.medi.high";
layers = (
{
anchors = (
{
name = bottom;
pos = (49,-38);
},
{
name = damma;
pos = (13,190);
},
{
name = entry;
pos = (126,0);
},
{
name = exit;
},
{
name = fatha;
pos = (56,510);
},
{
name = kasra;
pos = (82,-77);
},
{
name = top;
pos = (52,394);
}
);
backgroundImage = {
alpha = 80;
angle = -0.4;
imagePath = "images/MS-ADD-01116-000-00025.jpg";
locked = 1;
pos = (-3500,-2714);
scale = (5,5);
};
layerId = m01;
shapes = (
{
closed = 1;
nodes = (
(139,0,l),
(139,110,l),
(127,110,o),
(125,134,o),
(123,157,cs),
(117,234,o),
(105,380,o),
(96,449,cs),
(94,468,o),
(75,466,o),
(71,453,cs),
(63,424,o),
(33,382,o),
(14,376,cs),
(1,372,o),
(-2,364,o),
(-1,354,cs),
(4,303,o),
(14,174,o),
(19,110,c),
(-20,110,l),
(-20,0,l)
);
}
);
width = 126;
}
);
metricLeft = "=-20@0";
metricRight = "=0@130";
},
{
glyphname = "behDotless-ar.medi.round";
layers = (
{
anchors = (
{
name = bottom;
pos = (28,-38);
},
{
name = damma;
pos = (-8,190);
},
{
name = entry;
pos = (111,0);
},
{
name = exit;
pos = (-5,0);
},
{
name = fatha;
pos = (33,407);
},
{
name = kasra;
pos = (61,-77);
},
{
name = top;
pos = (46,305);
}
);
backgroundImage = {
alpha = 80;
imagePath = "images/MS-ADD-01116-000-00005.jpg";
locked = 1;
pos = (-5171,-2810);
scale = (5,5);
};
layerId = m01;
shapes = (
{
closed = 1;
nodes = (
(127,0,l),
(127,110,l),
(115,113,o),
(112,134,o),
(110,157,cs),
(104,234,o),
(102,269,o),
(98,341,cs),
(97,360,o),
(83,359,o),
(77,351,cs),
(46,305,o),
(23,271,o),
(4,265,cs),
(-9,261,o),
(-12,248,o),
(-11,238,cs),
(-6,187,o),
(-8,174,o),
(-5,58,cs),
(-4,23,o),
(19,0,o),
(55,0,cs)
);
}
);
width = 110;
}
);
metricLeft = "=-5@58";
metricRight = "=0@157";
},
{
glyphname = "behDotless-ar.init";
layers = (
{
anchors = (
{
name = bottom;
pos = (109,26);
},
{
name = damma;
pos = (-21,212);
},
{
name = exit;
},
{
name = fatha;
pos = (62,436);
},
{
name = kasra;
pos = (57,-76);
},
{
name = top;
pos = (63,323);
}
);
backgroundImage = {
alpha = 80;
imagePath = "images/MS-ADD-01116-000-00005.jpg";
locked = 1;
pos = (-4107,-2810);
scale = (5,5);
};
layerId = m01;
shapes = (
{
closed = 1;
nodes = (
(56,0,ls),
(95,0,o),
(131,37,o),
(130,72,cs),
(128,172,o),
(115,263,o),
(115,363,cs),
(115,372,o),
(108,376,o),
(101,365,cs),
(81,334,o),
(53,305,o),
(24,286,cs),
(10,277,o),
(13,260,o),
(15,229,cs),
(17,196,o),
(17,166,o),
(19,110,c),
(-20,110,l),
(-20,0,l)
);
}
);
width = 130;
}
);
metricLeft = "=-20";
metricRight = "=0";
},
{
glyphname = "behDotless-ar.init.high";
layers = (
{
anchors = (
{
name = bottom;
pos = (118,26);
},
{
name = damma;
pos = (-3,188);
},
{
name = exit;
},
{
name = fatha;
pos = (66,547);
},
{
name = kasra;
pos = (66,-76);
},
{
name = top;
pos = (63,428);
}
);
backgroundImage = {
alpha = 80;
imagePath = "images/MS-ADD-01116-000-00008.jpg";
locked = 1;
pos = (-4012,-2869);
scale = (5,5);
};
layerId = m01;
shapes = (
{
closed = 1;
nodes = (
(65,0,ls),
(104,0,o),
(131,37,o),
(130,72,cs),
(128,172,o),
(109,366,o),
(103,468,cs),
(102,477,o),
(96,481,o),
(89,470,cs),
(69,439,o),
(46,402,o),
(24,388,cs),
(10,379,o),
(3,365,o),
(6,334,cs),
(9,301,o),
(19,166,o),
(19,110,c),
(-20,110,l),
(-20,0,l)
);
}
);
width = 130;
}
);
metricLeft = "=-20@0";
metricRight = "=0";
},
{
glyphname = "hah-ar";
layers = (
{
anchors = (
{
name = bottom;
pos = (648,-50);
},
{
name = damma;
pos = (-66,54);
},
{
name = fatha;
pos = (674,197);
},
{
name = kasra;
pos = (826,-72);
},
{
name = top;
pos = (335,226);
}
);
backgroundImage = {
alpha = 80;
angle = -1.1;
imagePath = "images/MS-ADD-01116-000-00029.jpg";
locked = 1;
pos = (-2632,-2744);
scale = (5,5);
};
layerId = m01;
shapes = (
{
closed = 1;
nodes = (
(400,-123,o),
(542,-61,o),
(607,-38,cs),
(617,-34,o),
(622,-21,o),
(605,-21,cs),
(595,-21,o),
(415,-31,o),
(286,-23,cs),
(204,-18,o),
(127,6,o),
(113,88,cs),
(111,100,o),
(131,105,o),
(133,94,cs),
(152,12,o),
(249,-7,o),
(365,-7,cs),
(401,-7,o),
(711,-3,o),
(854,-3,cs),
(871,-3,o),
(900,0,o),
(912,11,cs),
(934,30,o),
(958,56,o),
(980,88,cs),
(986,97,o),
(981,104,o),
(970,104,cs),
(742,104,o),
(534,102,o),
(391,268,cs),
(383,277,o),
(372,274,o),
(368,268,cs),
(345,233,o),
(316,202,o),
(296,189,cs),
(284,181,o),
(285,175,o),
(296,164,cs),
(341,116,o),
(385,82,o),
(445,54,c),
(422,99,l),
(346,81,o),
(292,132,o),
(239,185,cs),
(202,222,o),
(178,231,o),
(131,212,cs),
(60,182,o),
(0,115,o),
(0,19,cs),
(0,-113,o),
(164,-122,o),
(209,-122,cs)
);
}
);
width = 983;
}
);
metricLeft = "=0";
metricRight = "=0";
unicode = 1581;
},
{
glyphname = "hah-ar.init";
layers = (
{
anchors = (
{
name = bottom;
pos = (250,-40);
},
{
name = damma;
pos = (0,184);
},
{
name = exit;
},
{
name = fatha;
pos = (396,207);
},
{
name = kasra;
pos = (478,-62);
},
{
name = top;
pos = (57,236);
}
);
backgroundImage = {
alpha = 80;
angle = -1.3;
imagePath = "images/MS-ADD-01116-000-00003.jpg";
locked = 1;
pos = (-2568,-3771);
scale = (5,5);
};
layerId = m01;
shapes = (
{
closed = 1;
nodes = (
(123,2,o),
(433,6,o),
(576,6,cs),
(593,6,o),
(622,9,o),
(634,20,cs),
(656,39,o),
(678,60,o),
(700,92,cs),
(706,101,o),
(703,108,o),
(692,108,cs),
(464,108,o),
(256,111,o),
(113,277,cs),
(105,286,o),
(94,283,o),
(90,277,cs),
(67,242,o),
(38,211,o),
(18,198,cs),
(6,190,o),
(7,184,o),
(18,173,cs),
(63,125,o),
(107,91,o),
(167,63,c),
(173,110,l),
(-20,110,l),
(-20,0,l)
);
}
);
width = 703;
}
);
metricLeft = "=-20";
metricRight = "=0";
},
{
glyphname = "dal-ar";
layers = (
{
anchors = (
{
name = damma;
pos = (-44,101);
},
{
name = fatha;
pos = (540,307);
},
{
name = kasra;
pos = (488,-85);
},
{
name = top;
pos = (505,278);
}
);
backgroundImage = {
alpha = 80;
angle = -0.2;
imagePath = "images/MS-ADD-01116-000-00035.jpg";
locked = 1;
pos = (-4516,-2883);
scale = (5,5);
};
layerId = m01;
shapes = (
{
closed = 1;
nodes = (
(395,-17,o),
(606,-20,o),
(830,-3,cs),
(854,-1,o),
(883,20,o),
(882,47,cs),
(880,112,o),
(856,163,o),
(840,199,cs),
(828,227,o),
(824,237,o),
(800,236,cs),
(622,231,o),
(367,222,o),
(228,237,c),
(235,256,o),
(261,312,o),
(269,331,cs),
(274,343,o),
(261,348,o),
(255,338,cs),
(217,275,o),
(172,215,o),
(127,155,cs),
(113,136,o),
(127,126,o),
(161,122,cs),
(279,104,o),
(601,109,o),
(722,120,cs),
(732,121,o),
(735,118,o),
(736,115,cs),
(739,107,o),
(737,102,o),
(708,100,cs),
(494,85,o),
(267,93,o),
(199,97,cs),
(164,99,o),
(130,103,o),
(116,111,cs),
(101,120,o),
(89,120,o),
(81,108,cs),
(66,84,o),
(46,58,o),
(34,46,cs),
(28,40,o),
(21,35,o),
(13,35,cs),
(-3,35,o),
(-5,22,o),
(10,11,cs),
(31,-6,o),
(90,-13,o),
(171,-14,cs)
);
}
);
width = 882;
}
);
metricLeft = "=0";
metricRight = "=kaf-ar";
unicode = 1583;
},
{
glyphname = "dal-ar.fina";
kernRight = sad;
layers = (
{
layerId = m01;
shapes = (
{
closed = 1;
nodes = (
(619,-7,o),
(754,-4,o),
(873,0,c),
(873,110,l),
(822,110,l),
(482,-7,l)
);
},
{
pos = (0,9);
ref = "dal-ar";
}
);
width = 875;
}
);
metricLeft = "=0";
metricRight = "=0@110";
},
{
glyphname = "reh-ar";
layers = (
{
anchors = (
{
name = damma;
pos = (-39,40);
},
{
name = fatha;
pos = (294,367);
},
{
name = kasra;
pos = (251,-117);
},
{
name = top;
pos = (206,211);
}
);
backgroundImage = {
alpha = 80;
imagePath = "images/MS-ADD-01116-000-00058.jpg";
locked = 1;
pos = (-2372,-2694);
scale = (5,5);
};
layerId = m01;
shapes = (
{
closed = 1;
nodes = (
(290,-56,o),
(351,-52,o),
(395,-39,cs),
(447,-25,o),
(451,10,o),
(450,46,cs),
(447,146,o),
(368,249,o),
(303,293,cs),
(286,305,o),
(283,297,o),
(275,289,cs),
(248,262,o),
(171,166,o),
(133,129,cs),
(125,122,o),
(122,109,o),
(137,101,cs),
(182,77,o),
(270,72,o),
(319,74,cs),
(327,74,o),
(330,61,o),
(320,60,cs),
(274,54,o),
(171,61,o),
(107,89,cs),
(97,93,o),
(94,94,o),
(89,88,cs),
(69,63,o),
(43,19,o),
(12,8,cs),
(-2,3,o),
(-6,-10,o),
(11,-18,cs),
(53,-37,o),
(143,-51,o),
(228,-54,cs)
);
}
);
width = 450;
}
);
metricLeft = "=0";
metricRight = "=0";
unicode = 1585;
},
{
glyphname = "reh-ar.fina";
layers = (
{
anchors = (
{
name = damma;
pos = (-9,67);
},
{
name = fatha;
pos = (294,284);
},
{
name = kasra;
pos = (251,-190);
},
{
name = top;
pos = (209,135);
}
);
backgroundImage = {
alpha = 80;
angle = 0.3;
imagePath = "images/MS-ADD-01116-000-00058.jpg";
locked = 1;
pos = (-4386,-3615);
scale = (5,5);
};
layerId = m01;
shapes = (
{
closed = 1;
nodes = (
(290,-120,o),
(349,-121,o),
(393,-108,cs),
(445,-94,o),
(454,-53,o),
(453,-17,cs),
(450,71,o),
(380,169,o),
(315,213,cs),
(308,218,o),
(304,220,o),
(300,220,cs),
(295,220,o),
(292,216,o),
(287,211,cs),
(260,184,o),
(185,100,o),
(147,63,cs),
(139,56,o),
(134,43,o),
(149,35,cs),
(194,11,o),
(273,-1,o),
(322,1,cs),
(330,1,o),
(333,-12,o),
(323,-13,cs),
(277,-19,o),
(163,0,o),
(107,29,cs),
(98,34,o),
(94,34,o),
(89,28,cs),
(69,3,o),
(43,-31,o),
(12,-42,cs),
(-2,-47,o),
(-5,-58,o),
(11,-68,cs),
(53,-96,o),
(139,-122,o),
(228,-121,cs)
);
}
);
width = 393;
}
);
metricLeft = "=reh-ar";
metricRight = "=-60";
},
{
glyphname = "seen-ar";
layers = (
{
anchors = (
{
name = fatha;
pos = (305,334);
},
{
name = kasra;
pos = (349,-239);
},
{
name = top;
pos = (282,208);
}
);
backgroundImage = {
alpha = 80;
imagePath = "images/MS-ADD-01116-000-00049.jpg";
locked = 1;
pos = (-5794,-2854);
scale = (5,5);
};
layerId = m01;
shapes = (
{
closed = 1;
nodes = (
(426,5,ls),
(466,6,o),
(492,42,o),
(492,82,cs),
(492,160,o),
(483,239,o),
(468,315,cs),
(465,331,o),
(447,331,o),
(440,316,cs),
(420,276,o),
(407,257,o),
(378,239,cs),
(369,233,o),
(371,226,o),
(372,220,cs),
(375,196,o),
(383,157,o),
(391,131,c),
(367,149,o),
(349,197,o),
(332,261,cs),
(329,271,o),
(322,273,o),
(315,262,cs),
(297,235,o),
(291,205,o),
(247,181,cs),
(240,177,o),
(238,173,o),
(241,167,cs),
(247,151,o),
(252,126,o),
(258,110,c),
(244,116,o),
(243,122,o),
(229,136,c),
(254,0,l)
);
},
{
pos = (0,-81);
ref = "noonghunna-ar";
}
);
width = 492;
}
);
metricLeft = "=noon-ar";
metricRight = "=0";
unicode = 1587;
},
{
glyphname = "seen-ar.fina";
layers = (
{
anchors = (
{
name = fatha;
pos = (305,332);
},
{
name = kasra;
pos = (349,-241);
},
{
name = top;
pos = (282,206);
}
);
layerId = m01;
shapes = (
{
closed = 1;
nodes = (
(509,0,l),
(509,110,l),
(499,110,o),
(493,128,o),
(490,157,cs),
(488,185,o),
(485,230,o),
(478,313,cs),
(477,329,o),
(457,329,o),
(450,314,cs),
(430,274,o),
(407,255,o),
(378,237,cs),
(369,231,o),
(371,224,o),
(372,218,cs),
(376,186,o),
(382,106,o),
(392,87,c),
(407,122,l),
(375,128,o),
(353,182,o),
(332,259,cs),
(329,269,o),
(322,271,o),
(315,260,cs),
(297,233,o),
(291,203,o),
(247,179,cs),
(240,175,o),
(238,171,o),
(241,165,cs),
(247,149,o),
(252,124,o),
(258,108,c),
(244,114,o),
(243,120,o),
(229,134,c),
(229,0,l)
);
},
{
alignment = -1;
pos = (0,-83);
ref = "noonghunna-ar";
}
);
width = 490;
}
);
metricLeft = "=seen-ar";
metricRight = "=0@157";
},
{
glyphname = "seen-ar.medi";
kernLeft = seen;
layers = (
{
anchors = (
{
name = damma;
pos = (-8,185);
},
{
name = entry;
pos = (393,0);
},
{
name = exit;
},
{
name = fatha;
pos = (197,339);
},
{
name = kasra;
pos = (217,-70);
},
{
name = top;
pos = (186,243);
}
);
backgroundImage = {
alpha = 80;
angle = -1;
imagePath = "images/MS-ADD-01116-000-00021.jpg";
locked = 1;
pos = (-3902,-2650);
scale = (5,5);
};
layerId = m01;
shapes = (
{
closed = 1;
nodes = (
(412,0,l),
(412,110,l),
(399,115,o),
(396,138,o),
(395,157,cs),
(390,219,o),
(387,303,o),
(378,363,cs),
(375,382,o),
(367,380,o),
(355,363,cs),
(333,333,o),
(323,299,o),
(285,287,cs),
(274,283,o),
(272,277,o),
(273,264,cs),
(275,218,o),
(275,123,o),
(297,84,c),
(300,103,l),
(269,138,o),
(247,236,o),
(227,297,cs),
(224,307,o),
(216,305,o),
(213,296,cs),
(193,241,o),
(171,223,o),
(145,210,cs),
(138,206,o),
(134,205,o),
(136,196,cs),
(139,180,o),
(159,115,o),
(181,98,c),
(175,127,l),
(144,139,o),
(127,159,o),
(107,256,cs),
(104,271,o),
(95,270,o),
(88,258,cs),
(66,222,o),
(53,204,o),
(27,192,cs),
(16,187,o),
(12,182,o),
(16,169,cs),
(23,147,o),
(36,98,o),
(49,76,c),
(61,110,l),
(-20,110,l),
(-20,0,l)
);
}
);
width = 393;
}
);
metricLeft = "=-20";
metricRight = "=-2@157";
},
{
glyphname = "seen-ar.init";
kernLeft = seen;
layers = (
{
anchors = (
{
name = damma;
pos = (12,185);
},
{
name = exit;
},
{
name = fatha;
pos = (199,353);
},
{
name = kasra;
pos = (237,-70);
},
{
name = top;
pos = (183,241);
}
);
backgroundImage = {
alpha = 80;
angle = -0.2;
imagePath = "images/MS-ADD-01116-000-00058.jpg";
locked = 1;
pos = (-2923,-1772);
scale = (5,5);
};
layerId = m01;
shapes = (
{
closed = 1;
nodes = (
(349,-3,o),
(376,33,o),
(378,72,cs),
(381,144,o),
(357,294,o),
(347,346,cs),
(343,365,o),
(330,361,o),
(326,345,cs),
(318,313,o),
(292,284,o),
(271,269,cs),
(262,262,o),
(256,260,o),
(259,247,cs),
(263,227,o),
(274,150,o),
(277,127,c),
(252,153,o),
(247,238,o),
(230,289,cs),
(227,299,o),
(217,297,o),
(213,288,cs),
(197,248,o),
(178,231,o),
(152,218,cs),
(145,214,o),
(138,209,o),
(138,200,cs),
(139,181,o),
(146,159,o),
(154,140,c),
(131,152,o),
(124,187,o),
(110,257,cs),
(107,272,o),
(93,271,o),
(86,259,cs),
(64,223,o),
(53,204,o),
(27,192,cs),
(16,187,o),
(12,182,o),
(16,169,cs),
(20,157,o),
(30,121,o),
(35,110,c),
(-20,110,l),
(-20,1,l),
(241,-2,ls)
);
}
);
width = 378;
}
);
metricLeft = "=-20";
metricRight = "=0";
},
{
glyphname = "sad-ar";
layers = (
{
anchors = (
{
name = damma;
pos = (33,60);
},
{
name = fatha;
pos = (591,315);
},
{
name = kasra;
pos = (531,-74);
},
{
name = top;
pos = (492,285);
}
);
backgroundImage = {
alpha = 80;
imagePath = "images/MS-ADD-01116-000-00062.jpg";
locked = 1;
pos = (-1606,-1863);
scale = (5,5);
};
layerId = m01;
shapes = (
{
closed = 1;
nodes = (
(217,-329,o),
(242,-325,o),
(252,-297,cs),
(258,-279,o),
(265,-247,o),
(264,-199,cs),
(263,-149,o),
(269,-7,o),
(261,102,cs),
(253,214,o),
(213,301,o),
(130,324,cs),
(117,327,o),
(111,329,o),
(110,318,cs),
(104,264,o),
(73,227,o),
(34,220,cs),
(9,216,o),
(10,203,o),
(26,195,cs),
(97,159,o),
(161,131,o),
(169,28,cs),
(174,-38,o),
(173,-145,o),
(166,-248,c),
(228,-195,l),
(140,-215,o),
(77,-207,o),
(57,-191,cs),
(53,-188,o),
(46,-186,o),
(43,-192,cs),
(20,-234,o),
(-13,-264,o),
(-37,-274,cs),
(-52,-280,o),
(-48,-292,o),
(-37,-300,cs),
(6,-333,o),
(122,-341,o),
(197,-332,cs)
);
},
{
closed = 1;
nodes = (
(555,98,o),
(376,108,o),
(283,111,cs),
(265,112,o),
(261,120,o),
(259,128,c),
(429,123,o),
(583,116,o),
(738,130,cs),
(748,131,o),
(751,128,o),
(752,125,cs),
(755,117,o),
(753,112,o),
(724,110,cs)
);
},
{
closed = 1;
nodes = (
(386,-4,o),
(622,-10,o),
(846,7,cs),
(870,9,o),
(899,30,o),
(898,57,cs),
(896,122,o),
(872,173,o),
(856,209,cs),
(844,237,o),
(840,247,o),
(816,246,cs),
(638,241,o),
(419,228,o),
(192,258,c),
(208,0,l)
);
}
);
width = 898;
}
);
metricLeft = "=noonghunna-ar";
metricRight = "=0";
unicode = 1589;
},
{
glyphname = "sad-ar.fina";
kernRight = sad;
layers = (
{
layerId = m01;
shapes = (
{
closed = 1;
nodes = (
(627,-4,o),
(772,-2,o),
(891,0,c),
(891,110,l),
(833,110,l),
(490,-4,l)
);
},
{
ref = "sad-ar";
}
);
width = 891;
}
);
metricLeft = "=sad-ar";
metricRight = "=0@110";
},
{
glyphname = "sad-ar.medi";
kernLeft = sad;
kernRight = sad;
layers = (
{
anchors = (
{
name = entry;
pos = (758,0);
},
{
name = exit;
}
);
backgroundImage = {
alpha = 80;
imagePath = "images/MS-ADD-01116-000-00003.jpg";
pos = (-5087,-3738);
scale = (5,5);
};
layerId = m01;
shapes = (
{
closed = 1;
nodes = (
(494,-4,o),
(639,-2,o),
(758,0,c),
(758,110,l),
(700,110,l),
(357,-4,l)
);
},
{
ref = "sad-ar.init";
}
);
width = 758;
}
);
metricLeft = "=sad-ar.init";
metricRight = "=0@110";
},
{
glyphname = "sad-ar.init";
kernLeft = sad;
layers = (
{
anchors = (
{
name = damma;
pos = (-4,181);
},
{
name = exit;
},
{
name = fatha;
pos = (458,315);
},
{
name = kasra;
pos = (368,-75);
},
{
name = top;
pos = (389,285);
}
);
backgroundImage = {
alpha = 80;
imagePath = "images/MS-ADD-01116-000-00003.jpg";
locked = 1;
pos = (-5124,-3740);
scale = (5,5);
};
layerId = m01;
shapes = (
{
closed = 1;
nodes = (
(253,-4,o),
(489,-10,o),
(713,7,cs),
(737,9,o),
(766,30,o),
(765,57,cs),
(763,122,o),
(739,173,o),
(723,209,cs),
(711,237,o),
(707,247,o),
(683,246,cs),
(505,241,o),
(286,238,o),
(123,250,cs),
(103,252,o),
(107,254,o),
(107,273,cs),
(107,305,o),
(110,370,o),
(102,408,cs),
(99,422,o),
(87,423,o),
(81,406,cs),
(71,374,o),
(40,339,o),
(16,322,cs),
(1,311,o),
(6,287,o),
(7,268,cs),
(10,224,o),
(12,164,o),
(12,109,c),
(-20,110,l),
(-20,0,l)
);
},
{
closed = 1;
nodes = (
(422,98,o),
(243,108,o),
(150,111,cs),
(132,112,o),
(128,120,o),
(126,128,c),
(296,123,o),
(450,116,o),
(605,130,cs),
(615,131,o),
(618,128,o),
(619,125,cs),
(622,117,o),
(620,112,o),
(591,110,cs)
);
}
);
width = 765;
}
);
metricLeft = "=-20@10";
metricRight = "=0";
},
{
glyphname = "tah-ar";
layers = (
{
anchors = (
{
name = damma;
pos = (-72,56);
},
{
name = fatha;
pos = (-19,513);
},
{
name = kasra;
pos = (390,-91);
},
{
name = top;
pos = (429,275);
}
);
backgroundImage = {
alpha = 80;
angle = 1.5;
imagePath = "images/MS-ADD-01116-000-00066.jpg";
locked = 1;
pos = (-2527,-3689);
scale = (5,5);
};
layerId = m01;
shapes = (
{
closed = 1;
nodes = (
(401,-15,o),
(579,-16,o),
(753,-3,cs),
(777,-1,o),
(806,20,o),
(805,47,cs),
(803,112,o),
(779,163,o),
(763,199,cs),
(751,227,o),
(747,237,o),
(723,236,cs),
(545,231,o),
(332,228,o),
(169,240,cs),
(149,242,o),
(150,244,o),
(151,263,cs),
(155,335,o),
(163,527,o),
(158,595,cs),
(155,632,o),
(153,664,o),
(146,701,cs),
(144,711,o),
(134,712,o),
(131,703,cs),
(118,663,o),
(80,640,o),
(56,623,cs),
(31,605,o),
(52,579,o),
(55,512,cs),
(58,448,o),
(53,299,o),
(41,85,cs),
(39,49,o),
(19,37,o),
(5,31,cs),
(-7,27,o),
(4,18,o),
(12,12,cs),
(38,-6,o),
(145,-11,o),
(202,-12,cs)
);
},
{
closed = 1;
nodes = (
(437,87,o),
(236,92,o),
(154,104,cs),
(140,106,o),
(134,109,o),
(134,115,cs),
(135,130,o),
(136,144,o),
(137,159,c),
(116,129,l),
(238,106,o),
(475,105,o),
(645,120,cs),
(655,121,o),
(658,118,o),
(659,115,cs),
(662,107,o),
(660,102,o),
(631,100,cs)
);
}
);
width = 805;
}
);
metricLeft = "=0";
metricRight = "=0";
unicode = 1591;
},
{
glyphname = "tah-ar.fina";
kernRight = sad;
layers = (
{
layerId = m01;
shapes = (
{
closed = 1;
nodes = (
(542,-4,o),
(679,-5,o),
(798,0,c),
(798,110,l),
(745,110,l),
(405,-4,l)
);
},
{
alignment = -1;
pos = (0,10);
ref = "tah-ar";
}
);
width = 798;
}
);
metricLeft = "=tah-ar";
metricRight = "=0@110";
},
{
glyphname = "tah-ar.medi";
kernLeft = sad;
kernRight = sad;
layers = (
{
anchors = (
{
name = entry;
pos = (753,0);
},
{
name = exit;
}
);
layerId = m01;
shapes = (
{
closed = 1;
nodes = (
(494,-4,o),
(634,-2,o),
(753,0,c),
(753,110,l),
(700,110,l),
(357,-4,l)
);
},
{
ref = "tah-ar.init";
}
);
width = 753;
}
);
metricLeft = "=tah-ar.init";
metricRight = "=0@110";
},
{
glyphname = "tah-ar.init";
kernLeft = sad;
layers = (
{
anchors = (
{
name = damma;
pos = (-9,181);
},
{
name = exit;
},
{
name = fatha;
pos = (-64,523);
},
{
name = kasra;
pos = (584,-75);
},
{
name = top;
pos = (384,285);
}
);
backgroundImage = {
alpha = 80;
angle = -0.9;
imagePath = "images/MS-ADD-01116-000-00025.jpg";
locked = 1;
pos = (-5336,-3665);
scale = (5,5);
};
layerId = m01;
shapes = (
{
closed = 1;
nodes = (
(253,-4,o),
(484,-10,o),
(708,7,cs),
(732,9,o),
(761,30,o),
(760,57,cs),
(758,122,o),
(734,173,o),
(718,209,cs),
(706,237,o),
(702,247,o),
(678,246,cs),
(500,241,o),
(281,238,o),
(118,250,cs),
(98,252,o),
(100,254,o),
(100,273,cs),
(100,345,o),
(102,527,o),
(101,595,cs),
(100,632,o),
(98,664,o),
(91,701,cs),
(89,711,o),
(79,712,o),
(76,703,cs),
(63,663,o),
(35,640,o),
(11,623,cs),
(-14,605,o),
(7,579,o),
(10,512,cs),
(13,458,o),
(12,309,o),
(11,88,c),
(102,86,l),
(102,172,l),
(70,125,l),
(260,119,o),
(430,115,o),
(600,130,cs),
(610,131,o),
(613,128,o),
(614,125,cs),
(617,117,o),
(615,112,o),
(586,110,cs),
(372,95,o),
(145,107,o),
(77,108,cs),
(-20,110,l),
(-20,0,l)
);
}
);
width = 760;
}
);
metricLeft = "=-20";
metricRight = "=kaf-ar";
},
{
glyphname = "ain-ar";
layers = (
{
anchors = (
{
name = damma;
pos = (-66,54);
},
{
name = fatha;
pos = (454,423);
},
{
name = kasra;
pos = (826,-72);
},
{
name = top;
pos = (382,294);
}
);
layerId = m01;
shapes = (
{
closed = 1;
nodes = (
(400,-123,o),
(542,-61,o),
(607,-38,cs),
(617,-34,o),
(622,-21,o),
(605,-21,cs),
(595,-21,o),
(415,-31,o),
(286,-23,cs),
(204,-18,o),
(127,6,o),
(113,88,cs),
(111,100,o),
(131,105,o),
(133,94,cs),
(152,12,o),
(249,-7,o),
(365,-7,cs),
(401,-7,o),
(711,-2,o),
(873,-2,cs),
(879,-2,o),
(886,2,o),
(893,7,cs),
(915,23,o),
(950,62,o),
(976,81,cs),
(984,87,o),
(986,98,o),
(969,97,cs),
(826,90,o),
(751,84,o),
(612,119,cs),
(476,152,o),
(387,220,o),
(415,267,cs),
(425,284,o),
(456,332,o),
(468,346,cs),
(478,358,o),
(469,373,o),
(454,358,cs),
(439,343,o),
(343,252,o),
(317,224,cs),
(272,176,o),
(332,80,o),
(404,65,c),
(422,99,l),
(346,81,o),
(292,132,o),
(239,185,cs),
(202,222,o),
(178,231,o),
(131,212,cs),
(60,182,o),
(0,115,o),
(0,19,cs),
(0,-113,o),
(164,-122,o),
(209,-122,cs)
);
}
);
width = 982;
}
);
metricLeft = "=0";
metricRight = "=0";
unicode = 1593;
},
{
glyphname = "ain-ar.fina";
layers = (
{
anchors = (
{
name = damma;
pos = (-48,48);
},
{
name = fatha;
pos = (223,427);
},
{
name = kasra;
pos = (330,-400);
},
{
name = top;
pos = (202,309);
}
);
backgroundImage = {
alpha = 80;
angle = 0.4;
imagePath = "images/MS-ADD-01116-000-00032.jpg";
locked = 1;
pos = (-4968,-3653);
scale = (5,5);
};
layerId = m01;
shapes = (
{
closed = 1;
nodes = (
(484,-333,o),
(549,-285,o),
(589,-228,cs),
(600,-212,o),
(591,-209,o),
(580,-212,cs),
(344,-277,o),
(87,-218,o),
(220,81,cs),
(232,108,o),
(245,203,o),
(253,350,cs),
(254,366,o),
(245,370,o),
(236,355,cs),
(209,310,o),
(193,295,o),
(155,270,cs),
(147,265,o),
(144,259,o),
(145,250,cs),
(156,152,o),
(141,104,o),
(125,54,cs),
(91,-51,o),
(74,-140,o),
(95,-207,cs),
(121,-286,o),
(209,-333,o),
(331,-333,cs)
);
},
{
closed = 1;
nodes = (
(215,138,l),
(190,183,o),
(131,238,o),
(96,272,cs),
(89,279,o),
(81,282,o),
(76,274,cs),
(50,233,o),
(34,220,o),
(9,203,cs),
(0,197,o),
(-4,184,o),
(4,175,cs),
(46,131,o),
(96,96,o),
(125,54,c)
);
},
{
closed = 1;
nodes = (
(269,0,l),
(269,110,l),
(269,139,o),
(264,215,o),
(253,350,c),
(209,253,l),
(157,0,l)
);
}
);
width = 268;
}
);
metricLeft = "=0";
metricRight = "=0@150";
},
{
glyphname = "ain-ar.medi";
layers = (
{
anchors = (
{
name = damma;
pos = (-5,187);
},
{
name = entry;
pos = (280,0);
},
{
name = exit;
},
{
name = fatha;
pos = (225,447);
},
{
name = kasra;
pos = (213,-73);
},
{
name = top;
pos = (204,339);
}
);
backgroundImage = {
alpha = 80;
angle = -0.1;
imagePath = "images/MS-ADD-01116-000-00012.jpg";
locked = 1;
pos = (-5295,-2772);
scale = (5,5);
};
layerId = m01;
shapes = (
{
closed = 1;
nodes = (
(288,0,l),
(288,110,l),
(259,110,l),
(280,101,l),
(278,187,o),
(272,297,o),
(259,376,cs),
(257,391,o),
(247,391,o),
(237,377,cs),
(207,337,o),
(170,291,o),
(125,250,c),
(221,201,l),
(179,228,o),
(137,267,o),
(108,307,cs),
(103,314,o),
(93,317,o),
(88,309,cs),
(62,268,o),
(44,240,o),
(19,223,cs),
(10,217,o),
(6,204,o),
(14,195,cs),
(56,151,o),
(91,107,o),
(144,72,c),
(177,110,l),
(-20,110,l),
(-20,0,l)
);
}
);
width = 280;
}
);
metricLeft = "=-20";
metricRight = "=0@120";
},
{
glyphname = "ain-ar.init";
layers = (
{
anchors = (
{
name = damma;
pos = (10,185);
},
{
name = exit;
pos = (15,0);
},
{
name = fatha;
pos = (177,433);
},
{
name = kasra;
pos = (377,-74);
},
{
name = top;
pos = (105,304);
}
);
backgroundImage = {
alpha = 80;
imagePath = "images/MS-ADD-01116-000-00032.jpg";
locked = 1;
pos = (-4083,-3629);
scale = (5,5);
};
layerId = m01;
shapes = (
{
closed = 1;
nodes = (
(218,-3,o),
(357,0,o),
(596,8,cs),
(602,8,o),
(609,12,o),
(616,17,cs),
(638,33,o),
(673,72,o),
(699,91,cs),
(707,97,o),
(709,108,o),
(692,107,cs),
(549,100,o),
(474,94,o),
(335,129,cs),
(199,162,o),
(110,230,o),
(138,277,cs),
(148,294,o),
(179,342,o),
(191,356,cs),
(201,368,o),
(192,383,o),
(177,368,cs),
(162,353,o),
(66,262,o),
(40,234,cs),
(-5,186,o),
(55,90,o),
(127,75,c),
(143,110,l),
(-20,110,l),
(-20,0,l)
);
}
);
width = 705;
}
);
metricLeft = "=-20";
metricRight = "=0";
},
{
glyphname = "fehDotless-ar";
layers = (
{
anchors = (
{
name = damma;
pos = (-51,68);
},
{
name = fatha;
pos = (778,516);
},
{
name = kasra;
pos = (894,-69);
},
{
name = top;
pos = (686,393);
}
);
backgroundImage = {
alpha = 80;
angle = 1.5;
imagePath = "images/MS-ADD-01116-000-00063.jpg";
locked = 1;
pos = (-2263,-2003);
scale = (5,5);
};
layerId = m01;
shapes = (
{
closed = 1;
nodes = (
(507,-14,o),
(757,-15,o),
(888,-1,cs),
(1001,11,o),
(1021,66,o),
(1020,122,cs),
(1018,273,o),
(922,447,o),
(796,445,cs),
(689,443,o),
(634,332,o),
(634,266,cs),
(635,197,o),
(655,159,o),
(689,137,cs),
(745,100,o),
(845,112,o),
(892,122,cs),
(903,123,o),
(905,108,o),
(894,105,cs),
(818,84,o),
(471,86,o),
(177,97,cs),
(123,99,o),
(115,114,o),
(106,118,cs),
(97,122,o),
(87,121,o),
(85,117,cs),
(60,67,o),
(31,39,o),
(7,32,cs),
(-6,28,o),
(0,16,o),
(11,13,cs),
(55,0,o),
(109,-4,o),
(159,-5,cs)
);
},
{
closed = 1;
nodes = (
(803,270,o),
(797,276,o),
(797,283,cs),
(797,289,o),
(803,295,o),
(810,295,cs),
(816,295,o),
(822,289,o),
(822,283,cs),
(822,276,o),
(816,270,o),
(810,270,cs)
);
}
);
width = 1020;
}
);
metricLeft = "=behDotless-ar";
metricRight = "=0";
unicode = 1697;
},
{
glyphname = "fehDotless-ar.fina";
layers = (
{
anchors = (
{
name = damma;
pos = (-47,68);
},
{
name = fatha;
pos = (821,481);
},
{
name = kasra;
pos = (830,-73);
},
{
name = top;
pos = (683,362);
}
);
backgroundImage = {
alpha = 80;
imagePath = "images/MS-ADD-01116-000-00012.jpg";
locked = 1;
pos = (-4282,-2769);
scale = (5,5);
};
layerId = m01;
shapes = (
{
closed = 1;
nodes = (
(437,-6,o),
(569,-1,o),
(997,0,c),
(997,110,l),
(927,110,l),
(991,47,l),
(993,103,o),
(996,158,o),
(996,188,cs),
(996,327,o),
(916,413,o),
(822,413,cs),
(729,413,o),
(635,338,o),
(635,231,cs),
(635,145,o),
(699,97,o),
(758,62,c),
(810,100,l),
(463,94,o),
(412,96,o),
(195,100,cs),
(151,101,o),
(126,101,o),
(87,119,cs),
(79,123,o),
(71,127,o),
(67,110,cs),
(59,79,o),
(39,50,o),
(13,38,cs),
(-3,31,o),
(-4,21,o),
(10,13,cs),
(38,-3,o),
(79,-9,o),
(139,-8,cs)
);
},
{
closed = 1;
nodes = (
(821,238,o),
(815,244,o),
(815,251,cs),
(815,257,o),
(821,263,o),
(828,263,cs),
(834,263,o),
(840,257,o),
(840,251,cs),
(840,244,o),
(834,238,o),
(828,238,cs)
);
}
);
width = 997;
}
);
metricLeft = "=behDotless-ar";
metricRight = "=0";
},
{
glyphname = "fehDotless-ar.medi";
layers = (
{
anchors = (
{
name = damma;
pos = (-7,186);
},
{
name = entry;
pos = (377,0);
},
{
name = exit;
},
{
name = fatha;
pos = (201,481);
},
{
name = kasra;
pos = (230,-71);
},
{
name = top;
pos = (69,371);
}
);
backgroundImage = {
alpha = 80;
imagePath = "images/MS-ADD-01116-000-00012.jpg";
locked = 1;
pos = (-4900,-2769);
scale = (5,5);
};
layerId = m01;
shapes = (
{
closed = 1;
nodes = (
(377,0,l),
(377,110,l),
(307,110,l),
(371,47,l),
(373,103,o),
(376,158,o),
(376,188,cs),
(376,327,o),
(296,413,o),
(202,413,cs),
(109,413,o),
(15,338,o),
(15,231,cs),
(15,145,o),
(79,97,o),
(138,62,c),
(106,110,l),
(-20,110,l),
(-20,0,l)
);
},
{
closed = 1;
nodes = (
(201,238,o),
(195,244,o),
(195,251,cs),
(195,257,o),
(201,263,o),
(208,263,cs),
(214,263,o),
(220,257,o),
(220,251,cs),
(220,244,o),
(214,238,o),
(208,238,cs)
);
}
);
width = 377;
}
);
metricLeft = "=-20";
metricRight = "=0";
},
{
glyphname = "fehDotless-ar.init";
layers = (
{
anchors = (
{
name = bottom;
pos = (350,50);
},
{
name = damma;
pos = (3,182);
},
{
name = exit;
},
{
name = fatha;
pos = (193,533);
},
{
name = kasra;
pos = (272,-54);
},
{
name = top;
pos = (78,411);
}
);
backgroundImage = {
alpha = 80;
imagePath = "images/MS-ADD-01116-000-00012.jpg";
locked = 1;
pos = (-1724,-3557);
scale = (5,5);
};
layerId = m01;
shapes = (
{
closed = 1;
nodes = (
(84,0,o),
(234,12,o),
(267,17,cs),
(381,34,o),
(397,80,o),
(397,136,cs),
(397,287,o),
(311,462,o),
(196,462,cs),
(89,462,o),
(13,351,o),
(13,260,cs),
(13,216,o),
(36,178,o),
(70,155,cs),
(126,117,o),
(225,128,o),
(273,137,cs),
(284,139,o),
(286,124,o),
(274,121,cs),
(202,103,o),
(55,110,o),
(-20,110,c),
(-20,0,l)
);
},
{
closed = 1;
nodes = (
(186,287,o),
(180,293,o),
(180,300,cs),
(180,306,o),
(186,312,o),
(193,312,cs),
(199,312,o),
(205,306,o),
(205,300,cs),
(205,293,o),
(199,287,o),
(193,287,cs)
);
}
);
width = 397;
}
);
metricLeft = "=-20";
metricRight = "=0";
},
{
glyphname = "qafDotless-ar";
layers = (
{
anchors = (
{
name = damma;
pos = (-80,148);
},
{
name = fatha;
pos = (128,444);
},
{
name = kasra;
pos = (276,-309);
},
{
name = top;
pos = (39,309);
}
);
backgroundImage = {
alpha = 80;
angle = 1;
imagePath = "images/MS-ADD-01116-000-00056.jpg";
locked = 1;
pos = (-1294,-3692);
scale = (5,5);
};
layerId = m01;
shapes = (
{
closed = 1;
nodes = (
(456,-205,o),
(469,-184,o),
(469,-157,cs),
(469,-112,o),
(464,-72,o),
(452,-37,cs),
(446,-18,o),
(437,-1,o),
(419,1,cs),
(381,6,o),
(343,5,o),
(305,8,cs),
(290,9,o),
(283,11,o),
(292,27,cs),
(312,60,o),
(328,95,o),
(328,143,cs),
(328,224,o),
(261,373,o),
(167,373,cs),
(67,373,o),
(0,269,o),
(0,172,cs),
(0,95,o),
(60,49,o),
(192,49,cs),
(228,49,o),
(255,52,o),
(276,60,c),
(261,73,l),
(238,31,o),
(206,-10,o),
(178,-43,cs),
(167,-57,o),
(164,-83,o),
(183,-91,cs),
(226,-109,o),
(277,-109,o),
(337,-109,cs),
(354,-109,o),
(360,-115,o),
(360,-123,c),
(262,-130,o),
(196,-122,o),
(170,-98,cs),
(164,-93,o),
(157,-91,o),
(152,-97,cs),
(120,-135,o),
(92,-165,o),
(68,-182,cs),
(57,-190,o),
(66,-200,o),
(77,-204,cs),
(174,-245,o),
(291,-252,o),
(432,-212,cs)
);
},
{
closed = 1;
nodes = (
(154,211,o),
(148,217,o),
(148,224,cs),
(148,230,o),
(154,236,o),
(161,236,cs),
(167,236,o),
(173,230,o),
(173,224,cs),
(173,217,o),
(167,211,o),
(161,211,cs)
);
}
);
width = 469;
}
);
metricLeft = "=0";
metricRight = "=0";
unicode = 1647;
},
{
glyphname = "qafDotless-ar.fina";
layers = (
{
anchors = (
{
name = damma;
pos = (-90,148);
},
{
name = fatha;
pos = (112,428);
},
{
name = kasra;
pos = (346,-349);
},
{
name = top;
pos = (47,295);
}
);
backgroundImage = {
alpha = 80;
angle = 1.4;
imagePath = "images/MS-ADD-01116-000-00054.jpg";
locked = 1;
pos = (-3485,-1814);
scale = (5,5);
};
layerId = m01;
shapes = (
{
closed = 1;
nodes = (
(552,-258,o),
(570,-224,o),
(570,-197,cs),
(570,-152,o),
(560,-112,o),
(548,-77,cs),
(542,-58,o),
(522,-33,o),
(504,-31,cs),
(423,-22,o),
(311,-47,o),
(327,59,c),
(307,-78,l),
(332,-50,o),
(370,41,o),
(370,107,cs),
(370,197,o),
(290,363,o),
(186,363,cs),
(74,363,o),
(0,266,o),
(0,159,cs),
(0,73,o),
(67,0,o),
(213,0,cs),
(253,0,o),
(283,2,o),
(307,4,c),
(297,30,l),
(283,-2,o),
(261,-35,o),
(246,-66,cs),
(238,-82,o),
(234,-117,o),
(271,-132,cs),
(296,-143,o),
(347,-149,o),
(407,-149,cs),
(424,-149,o),
(430,-155,o),
(430,-163,c),
(332,-170,o),
(271,-158,o),
(241,-139,cs),
(233,-134,o),
(218,-131,o),
(209,-141,cs),
(181,-175,o),
(143,-216,o),
(127,-216,cs),
(112,-216,o),
(107,-238,o),
(134,-252,cs),
(154,-263,o),
(178,-272,o),
(227,-278,cs),
(296,-286,o),
(418,-288,o),
(528,-263,cs)
);
},
{
closed = 1;
nodes = (
(373,0,l),
(373,110,l),
(330,110,l),
(330,0,l)
);
},
{
closed = 1;
nodes = (
(182,178,o),
(176,184,o),
(176,191,cs),
(176,197,o),
(182,203,o),
(189,203,cs),
(195,203,o),
(201,197,o),
(201,191,cs),
(201,184,o),
(195,178,o),
(189,178,cs)
);
}
);
width = 373;
}
);
metricLeft = "=0";
metricRight = "=0@10";
},
{
glyphname = "kaf-ar";
layers = (
{
anchors = (
{
name = damma;
pos = (-30,101);
},
{
name = fatha;
pos = (72,573);
},
{
name = kasra;
pos = (720,-85);
}
);
backgroundImage = {
alpha = 80;
imagePath = "images/MS-ADD-01116-000-00007.jpg";
pos = (-5139,-1866);
scale = (5,5);
};
layerId = m01;
shapes = (
{
closed = 1;
nodes = (
(409,-17,o),
(620,-20,o),
(844,-3,cs),
(868,-1,o),
(897,20,o),
(896,47,cs),
(894,112,o),
(870,163,o),
(854,199,cs),
(842,227,o),
(838,237,o),
(814,236,cs),
(636,231,o),
(429,228,o),
(268,240,cs),
(246,242,o),
(235,252,o),
(234,271,cs),
(228,343,o),
(244,517,o),
(239,648,cs),
(238,685,o),
(234,721,o),
(232,758,cs),
(231,768,o),
(225,769,o),
(220,760,cs),
(198,720,o),
(171,693,o),
(147,676,cs),
(122,658,o),
(143,632,o),
(145,565,cs),
(149,448,o),
(147,299,o),
(148,149,cs),
(148,120,o),
(196,118,o),
(255,116,cs),
(415,111,o),
(576,106,o),
(736,120,cs),
(746,121,o),
(749,118,o),
(750,115,cs),
(753,107,o),
(751,102,o),
(722,100,cs),
(508,85,o),
(281,93,o),
(213,97,cs),
(178,99,o),
(150,103,o),
(140,111,cs),
(126,122,o),
(113,116,o),
(106,108,cs),
(86,84,o),
(55,52,o),
(27,39,cs),
(21,36,o),
(20,38,o),
(14,41,cs),
(-1,48,o),
(-6,25,o),
(9,16,cs),
(39,-3,o),
(104,-13,o),
(185,-14,cs)
);
}
);
width = 896;
}
);
metricLeft = "=0";
metricRight = "=0";
unicode = 1603;
},
{
glyphname = "kaf-ar.fina";
layers = (
{
layerId = m01;
shapes = (
{
closed = 1;
nodes = (
(633,-7,o),
(768,-4,o),
(887,0,c),
(887,110,l),
(836,110,l),
(496,-7,l)
);
},
{
pos = (0,9);
ref = "kaf-ar";
}
);
width = 889;
}
);
metricLeft = "=kaf-ar";
metricRight = "=0@110";
},
{
glyphname = "kaf-ar.medi";
kernRight = sad;
layers = (
{
anchors = (
{
name = entry;
pos = (755,0);
},
{
name = exit;
}
);
layerId = m01;
shapes = (
{
closed = 1;
nodes = (
(755,0,l),
(755,110,l),
(709,110,l),
(8,0,l)
);
},
{
ref = "kaf-ar.init";
}
);
width = 757;
}
);
metricLeft = "=-10";
metricRight = "=0@110";
},
{
glyphname = "kaf-ar.medi.kashida";
kernRight = sad;
layers = (
{
anchors = (
{
name = entry;
pos = (755,0);
},
{
name = exit;
}
);
layerId = m01;
shapes = (
{
closed = 1;
nodes = (
(755,0,l),
(755,110,l),
(709,110,l),
(8,0,l)
);
},
{
pos = (-1,0);
ref = "kaf-ar.init.kashida";
}
);
width = 756;
}
);
metricLeft = "=-21";
metricRight = "=0@110";
},
{
glyphname = "kaf-ar.init";
layers = (
{
anchors = (
{
name = damma;
pos = (28,227);
},
{
name = exit;
},
{
name = fatha;
pos = (419,306);
},
{
name = kasra;
pos = (590,-73);
}
);
backgroundImage = {
alpha = 80;
angle = 0.4;
imagePath = "images/MS-ADD-01116-000-00016.jpg";
locked = 1;
pos = (-2102,-3408);
scale = (5,5);
};
layerId = m01;
shapes = (
{
closed = 1;
nodes = (
(15,0,l),
(178,0,o),
(465,0,o),
(720,0,cs),
(754,0,o),
(765,14,o),
(765,42,cs),
(765,98,o),
(743,176,o),
(713,230,cs),
(707,241,o),
(699,245,o),
(692,245,cs),
(503,245,o),
(289,230,o),
(124,249,c),
(175,328,ls),
(184,342,o),
(171,349,o),
(162,338,cs),
(23,163,ls),
(20,159,o),
(20,155,o),
(25,152,cs),
(34,146,o),
(68,141,o),
(116,137,cs),
(248,126,o),
(486,133,o),
(608,134,cs),
(612,134,o),
(619,134,o),
(621,130,cs),
(625,124,o),
(619,120,o),
(597,119,cs),
(433,115,o),
(296,108,o),
(114,117,cs),
(31,121,o),
(8,124,o),
(1,141,c),
(-10,141,l),
(-10,0,l)
);
}
);
width = 765;
}
);
metricLeft = "=-10";
metricRight = "=0";
},
{
glyphname = "kaf-ar.init.kashida";
layers = (
{
anchors = (
{
name = damma;
pos = (27,227);
},
{
name = exit;
},
{
name = fatha;
pos = (418,308);
},
{
name = kasra;
pos = (590,-71);
}
);
backgroundImage = {
alpha = 80;
angle = 0.6;
imagePath = "images/MS-ADD-01116-000-00016.jpg";
locked = 1;
pos = (-2090,-3415);
scale = (5,5);
};
layerId = m01;
shapes = (
{
closed = 1;
nodes = (
(-20,0,l),
(15,0,l),
(178,1,o),
(465,-1,o),
(720,0,cs),
(754,0,o),
(765,17,o),
(765,45,cs),
(765,101,o),
(742,176,o),
(712,230,cs),
(706,241,o),
(698,245,o),
(691,245,cs),
(502,240,o),
(291,240,o),
(123,248,c),
(174,334,ls),
(182,348,o),
(169,348,o),
(161,337,cs),
(22,146,ls),
(19,142,o),
(19,138,o),
(24,135,cs),
(31,131,o),
(53,126,o),
(100,124,cs),
(181,121,o),
(335,122,o),
(607,125,cs),
(611,125,o),
(618,125,o),
(620,121,cs),
(624,115,o),
(618,110,o),
(596,110,cs),
(439,107,o),
(169,105,o),
(-20,110,c)
);
}
);
width = 765;
}
);
metricLeft = "=-20";
metricRight = "=0";
},
{
glyphname = "lam-ar";
layers = (
{
anchors = (
{
name = damma;
pos = (13,46);
},
{
name = fatha;
pos = (-17,589);
},
{
name = kasra;
pos = (78,-343);
}
);
backgroundImage = {
alpha = 80;
angle = -0.2;
imagePath = "images/MS-ADD-01116-000-00005.jpg";
locked = 1;
pos = (-4737,-1764);
scale = (5,5);
};
layerId = m01;
shapes = (
{
closed = 1;
nodes = (
(175,-234,o),
(186,-222,o),
(186,-198,cs),
(186,-93,o),
(178,11,o),
(177,78,c),
(172,263,o),
(169,475,o),
(158,671,cs),
(157,694,o),
(143,700,o),
(133,681,cs),
(121,658,o),
(82,624,o),
(64,610,cs),
(49,597,o),
(55,584,o),
(56,574,cs),
(70,413,o),
(88,83,o),
(99,-166,c),
(119,-135,l),
(77,-145,o),
(40,-142,o),
(7,-131,cs),
(-1,-129,o),
(-11,-126,o),
(-17,-133,cs),
(-41,-162,o),
(-62,-192,o),
(-91,-211,cs),
(-104,-220,o),
(-109,-233,o),
(-96,-240,cs),
(-12,-283,o),
(91,-283,o),
(159,-243,cs)
);
}
);
width = 186;
}
);
metricRight = "=0";
unicode = 1604;
},
{
glyphname = "lam-ar.fina";
layers = (
{
backgroundImage = {
alpha = 80;
angle = -0.2;
imagePath = "images/MS-ADD-01116-000-00005.jpg";
locked = 1;
pos = (-4737,-1764);
scale = (5,5);
};
layerId = m01;
shapes = (
{
closed = 1;
nodes = (
(181,0,l),
(181,110,l),
(103,110,l),
(103,0,l)
);
},
{
ref = "lam-ar";
}
);
width = 176;
}
);
metricRight = "=0@130";
},
{
glyphname = "lam-ar.fina.short";
layers = (
{
anchors = (
{
name = damma;
pos = (13,46);
},
{
name = fatha;
pos = (-17,509);
},
{
name = kasra;
pos = (78,-343);
}
);
backgroundImage = {
alpha = 80;
angle = -0.2;
imagePath = "images/MS-ADD-01116-000-00005.jpg";
locked = 1;
pos = (-4737,-1764);
scale = (5,5);
};
layerId = m01;
shapes = (
{
closed = 1;
nodes = (
(175,-234,o),
(186,-222,o),
(186,-198,cs),
(186,-93,o),
(178,11,o),
(177,78,c),
(172,263,o),
(169,475,o),
(159,601,cs),
(157,624,o),
(143,630,o),
(133,611,cs),
(121,588,o),
(82,554,o),
(64,540,cs),
(49,527,o),
(55,514,o),
(56,504,cs),
(70,413,o),
(88,83,o),
(99,-166,c),
(119,-135,l),
(77,-145,o),
(40,-142,o),
(7,-131,cs),
(-1,-129,o),
(-11,-126,o),
(-17,-133,cs),
(-41,-162,o),
(-62,-192,o),
(-91,-211,cs),
(-104,-220,o),
(-109,-233,o),
(-96,-240,cs),
(-12,-283,o),
(91,-283,o),
(159,-243,cs)
);
},
{
closed = 1;
nodes = (
(181,0,l),
(181,110,l),
(103,110,l),
(103,0,l)
);
}
);
width = 180;
}
);
metricRight = "=0@0";
},
{
glyphname = "lam-ar.medi";
layers = (
{
anchors = (
{
name = entry;
pos = (121,0);
},
{
name = exit;
}
);
layerId = m01;
shapes = (
{
closed = 1;
nodes = (
(123,0,l),
(123,110,l),
(13,110,l),
(13,0,l)
);
},
{
ref = "lam-ar.init";
}
);
width = 121;
}
);
metricLeft = "=-20";
metricRight = "=0@159";
},
{
glyphname = "lam-ar.medi.short";
layers = (
{
anchors = (
{
name = damma;
pos = (-25,167);
},
{
name = entry;
pos = (123,0);
},
{
name = exit;
},
{
name = fatha;
pos = (-94,544);
},
{
name = kasra;
pos = (80,-67);
}
);
layerId = m01;
shapes = (
{
closed = 1;
nodes = (
(18,0,l),
(92,2,o),
(127,8,o),
(123,116,cs),
(118,263,o),
(107,405,o),
(98,601,cs),
(97,624,o),
(83,630,o),
(73,611,cs),
(61,588,o),
(22,554,o),
(4,540,cs),
(-11,527,o),
(-5,514,o),
(-4,504,cs),
(6,343,o),
(16,239,o),
(18,110,c),
(-20,110,l),
(-20,0,l)
);
},
{
closed = 1;
nodes = (
(123,0,l),
(123,110,l),
(13,110,l),
(13,0,l)
);
}
);
width = 123;
}
);
metricLeft = "=-20";
metricRight = "=0";
},
{
glyphname = "lam-ar.init";
layers = (
{
anchors = (
{
name = damma;
pos = (-25,167);
},
{
name = exit;
},
{
name = fatha;
pos = (-84,604);
},
{
name = kasra;
pos = (80,-67);
}
);
backgroundImage = {
alpha = 80;
angle = -0.1;
imagePath = "images/MS-ADD-01116-000-00003.jpg";
locked = 1;
pos = (-6202,-3734);
scale = (5,5);
};
layerId = m01;
shapes = (
{
closed = 1;
nodes = (
(18,0,l),
(92,2,o),
(127,8,o),
(123,116,cs),
(118,263,o),
(107,475,o),
(98,671,cs),
(97,694,o),
(83,700,o),
(73,681,cs),
(61,658,o),
(22,624,o),
(4,610,cs),
(-11,597,o),
(-5,584,o),
(-4,574,cs),
(6,413,o),
(16,239,o),
(18,110,c),
(-20,110,l),
(-20,0,l)
);
}
);
width = 123;
}
);
metricLeft = "=-20@0";
metricRight = "=0";
},
{
glyphname = "lam-ar.init.hah";
layers = (
{
anchors = (
{
name = damma;
pos = (0,217);
},
{
name = exit;
pos = (-63,135);
},
{
name = fatha;
pos = (-101,604);
},
{
name = kasra;
pos = (163,-67);
}
);
backgroundImage = {
alpha = 80;
angle = -1.1;
imagePath = "images/MS-ADD-01116-000-00003.jpg";
locked = 1;
pos = (-2756,-3780);
scale = (5,5);
};
layerId = m01;
shapes = (
{
closed = 1;
nodes = (
(105,135,l),
(100,281,o),
(89,483,o),
(81,671,cs),
(80,694,o),
(66,700,o),
(56,681,cs),
(44,658,o),
(5,624,o),
(-13,610,cs),
(-28,597,o),
(-22,584,o),
(-21,574,cs),
(-11,423,o),
(-2,261,o),
(0,135,c)
);
}
);
width = 105;
}
);
metricLeft = "=0@145";
metricRight = "=0";
},
{
glyphname = "meem-ar";
kernRight = meem;
layers = (
{
anchors = (
{
name = damma;
pos = (-40,60);
},
{
name = fatha;
pos = (350,395);
},
{
name = kasra;
pos = (376,-113);
}
);
backgroundImage = {
alpha = 80;
imagePath = "images/MS-ADD-01116-000-00005.jpg";
locked = 1;
pos = (-4613,-2812);
scale = (5,5);
};
layerId = m01;
shapes = (
{
closed = 1;
nodes = (
(370,-45,ls),
(436,-45,o),
(554,-55,o),
(554,86,cs),
(554,216,o),
(473,327,o),
(368,327,cs),
(267,327,o),
(171,234,o),
(198,84,c),
(171,86,o),
(146,92,o),
(122,100,cs),
(111,104,o),
(100,103,o),
(95,94,cs),
(75,61,o),
(50,44,o),
(12,30,cs),
(-7,23,o),
(0,9,o),
(6,1,cs),
(39,-44,o),
(193,-45,o),
(356,-45,cs)
);
},
{
closed = 1;
nodes = (
(380,137,o),
(374,143,o),
(374,150,cs),
(374,156,o),
(380,162,o),
(387,162,cs),
(393,162,o),
(399,156,o),
(399,150,cs),
(399,143,o),
(393,137,o),
(387,137,cs)
);
}
);
width = 554;
},
{
associatedMasterId = m01;
layerId = "E0CE7A6A-A561-47FC-A655-1D4A4B2AE5B5";
name = "26 Apr 21, 22:21";
shapes = (
{
closed = 1;
nodes = (
(914,-24,o),
(956,10,o),
(956,128,cs),
(956,290,o),
(850,486,o),
(708,486,cs),
(564,486,o),
(442,324,o),
(442,114,cs),
(442,8,o),
(530,-24,o),
(708,-24,cs)
);
},
{
closed = 1;
nodes = (
(706,210,o),
(702,214,o),
(702,224,cs),
(702,232,o),
(706,236,o),
(716,236,cs),
(724,236,o),
(728,232,o),
(728,224,cs),
(728,214,o),
(724,210,o),
(716,210,cs)
);
}
);
width = 950;
},
{
associatedMasterId = m01;
layerId = "68EBDF7B-15A5-46E4-9C57-C98FC85622D4";
name = "26 Apr 21, 22:20";
shapes = (
{
closed = 1;
nodes = (
(928,-22,o),
(956,24,o),
(956,142,cs),
(956,304,o),
(854,500,o),
(710,500,cs),
(560,500,o),
(420,318,o),
(420,128,c),
(352,128,o),
(282,134,o),
(214,152,c),
(158,94,o),
(92,50,o),
(20,8,c),
(236,-6,o),
(490,-22,o),
(702,-22,cs)
);
},
{
closed = 1;
nodes = (
(692,234,o),
(688,238,o),
(688,248,cs),
(688,256,o),
(692,260,o),
(702,260,cs),
(710,260,o),
(714,256,o),
(714,248,cs),
(714,238,o),
(710,234,o),
(702,234,cs)
);
}
);
width = 950;
}
);
metricLeft = "=0";
metricRight = "=0";
unicode = 1605;
},
{
glyphname = "meem-ar.fina";
layers = (
{
anchors = (
{
name = damma;
pos = (-39,60);
},
{
name = fatha;
pos = (355,395);
},
{
name = kasra;
pos = (381,-113);
}
);
backgroundImage = {
alpha = 80;
angle = -0.6;
imagePath = "images/MS-ADD-01116-000-00023.jpg";
locked = 1;
pos = (-3591,-2752);
scale = (5,5);
};
layerId = m01;
shapes = (
{
closed = 1;
nodes = (
(441,-46,o),
(567,-55,o),
(567,47,cs),
(567,216,o),
(470,324,o),
(373,324,cs),
(275,324,o),
(171,230,o),
(193,42,cs),
(204,-40,o),
(300,-44,o),
(375,-45,cs)
);
},
{
closed = 1;
nodes = (
(567,0,l),
(567,110,l),
(402,94,o),
(244,58,o),
(122,110,cs),
(111,115,o),
(100,113,o),
(95,104,cs),
(75,71,o),
(50,48,o),
(12,34,cs),
(-7,27,o),
(0,13,o),
(6,5,cs),
(40,-41,o),
(174,-41,o),
(342,-30,c)
);
},
{
closed = 1;
nodes = (
(388,127,o),
(382,133,o),
(382,140,cs),
(382,146,o),
(388,152,o),
(395,152,cs),
(401,152,o),
(407,146,o),
(407,140,cs),
(407,133,o),
(401,127,o),
(395,127,cs)
);
}
);
width = 567;
},
{
associatedMasterId = m01;
layerId = "E0CE7A6A-A561-47FC-A655-1D4A4B2AE5B5";
name = "26 Apr 21, 22:21";
shapes = (
{
closed = 1;
nodes = (
(914,-24,o),
(956,10,o),
(956,128,cs),
(956,290,o),
(850,486,o),
(708,486,cs),
(564,486,o),
(442,324,o),
(442,114,cs),
(442,8,o),
(530,-24,o),
(708,-24,cs)
);
},
{
closed = 1;
nodes = (
(706,210,o),
(702,214,o),
(702,224,cs),
(702,232,o),
(706,236,o),
(716,236,cs),
(724,236,o),
(728,232,o),
(728,224,cs),
(728,214,o),
(724,210,o),
(716,210,cs)
);
}
);
width = 950;
},
{
associatedMasterId = m01;
layerId = "68EBDF7B-15A5-46E4-9C57-C98FC85622D4";
name = "26 Apr 21, 22:20";
shapes = (
{
closed = 1;
nodes = (
(928,-22,o),
(956,24,o),
(956,142,cs),
(956,304,o),
(854,500,o),
(710,500,cs),
(560,500,o),
(420,318,o),
(420,128,c),
(352,128,o),
(282,134,o),
(214,152,c),
(158,94,o),
(92,50,o),
(20,8,c),
(236,-6,o),
(490,-22,o),
(702,-22,cs)
);
},
{
closed = 1;
nodes = (
(692,234,o),
(688,238,o),
(688,248,cs),
(688,256,o),
(692,260,o),
(702,260,cs),
(710,260,o),
(714,256,o),
(714,248,cs),
(714,238,o),
(710,234,o),
(702,234,cs)
);
}
);
width = 950;
}
);
metricLeft = "=0";
metricRight = "=0";
},
{
glyphname = "meem-ar.fina.round";
layers = (
{
layerId = m01;
shapes = (
{
ref = "meem-ar";
}
);
width = 554;
},
{
associatedMasterId = m01;
layerId = "E0CE7A6A-A561-47FC-A655-1D4A4B2AE5B5";
name = "26 Apr 21, 22:21";
shapes = (
{
closed = 1;
nodes = (
(914,-24,o),
(956,10,o),
(956,128,cs),
(956,290,o),
(850,486,o),
(708,486,cs),
(564,486,o),
(442,324,o),
(442,114,cs),
(442,8,o),
(530,-24,o),
(708,-24,cs)
);
},
{
closed = 1;
nodes = (
(706,210,o),
(702,214,o),
(702,224,cs),
(702,232,o),
(706,236,o),
(716,236,cs),
(724,236,o),
(728,232,o),
(728,224,cs),
(728,214,o),
(724,210,o),
(716,210,cs)
);
}
);
width = 950;
},
{
associatedMasterId = m01;
layerId = "68EBDF7B-15A5-46E4-9C57-C98FC85622D4";
name = "26 Apr 21, 22:20";
shapes = (
{
closed = 1;
nodes = (
(928,-22,o),
(956,24,o),
(956,142,cs),
(956,304,o),
(854,500,o),
(710,500,cs),
(560,500,o),
(420,318,o),
(420,128,c),
(352,128,o),
(282,134,o),
(214,152,c),
(158,94,o),
(92,50,o),
(20,8,c),
(236,-6,o),
(490,-22,o),
(702,-22,cs)
);
},
{
closed = 1;
nodes = (
(692,234,o),
(688,238,o),
(688,248,cs),
(688,256,o),
(692,260,o),
(702,260,cs),
(710,260,o),
(714,256,o),
(714,248,cs),
(714,238,o),
(710,234,o),
(702,234,cs)
);
}
);
width = 950;
}
);
metricLeft = "=0";
metricRight = "=0";
},
{
glyphname = "meem-ar.medi";
layers = (
{
anchors = (
{
name = damma;
pos = (2,158);
},
{
name = entry;
pos = (380,0);
},
{
name = exit;
},
{
name = fatha;
pos = (190,422);
},
{
name = kasra;
pos = (226,-76);
}
);
backgroundImage = {
alpha = 80;
angle = -0.6;
imagePath = "images/MS-ADD-01116-000-00005.jpg";
locked = 1;
pos = (-3209,-2727);
scale = (5,5);
};
layerId = m01;
shapes = (
{
closed = 1;
nodes = (
(266,-9,o),
(380,-9,o),
(380,74,cs),
(380,243,o),
(302,351,o),
(205,351,cs),
(107,351,o),
(-3,257,o),
(18,69,cs),
(25,6,o),
(125,-7,o),
(200,-8,cs)
);
},
{
closed = 1;
nodes = (
(380,0,l),
(380,110,l),
(-20,110,l),
(-20,115,o),
(-20,8,o),
(-20,0,c)
);
},
{
closed = 1;
nodes = (
(203,167,o),
(197,173,o),
(197,180,cs),
(197,186,o),
(203,192,o),
(210,192,cs),
(216,192,o),
(222,186,o),
(222,180,cs),
(222,173,o),
(216,167,o),
(210,167,cs)
);
}
);
width = 380;
}
);
metricLeft = "=-20";
metricRight = "=0";
},
{
glyphname = "meem-ar.medi.round2";
kernLeft = meem.alt;
layers = (
{
anchors = (
{
name = damma;
pos = (-24,174);
},
{
name = entry;
pos = (398,0);
},
{
name = exit;
},
{
name = fatha;
pos = (213,420);
},
{
name = kasra;
pos = (262,-96);
}
);
layerId = m01;
shapes = (
{
closed = 1;
nodes = (
(370,-26,o),
(398,20,o),
(398,80,cs),
(398,207,o),
(314,354,o),
(212,354,cs),
(91,354,o),
(-7,221,o),
(-10,103,cs),
(-11,14,o),
(91,-26,o),
(250,-26,cs)
);
},
{
closed = 1;
nodes = (
(398,0,l),
(398,110,l),
(250,110,l),
(250,0,l)
);
},
{
closed = 1;
nodes = (
(220,154,o),
(214,160,o),
(214,167,cs),
(214,173,o),
(220,179,o),
(227,179,cs),
(233,179,o),
(239,173,o),
(239,167,cs),
(239,160,o),
(233,154,o),
(227,154,cs)
);
}
);
width = 398;
}
);
metricLeft = "=-10";
metricRight = "=0";
},
{
glyphname = "meem-ar.init";
layers = (
{
anchors = (
{
name = damma;
pos = (3,194);
},
{
name = exit;
},
{
name = fatha;
pos = (240,440);
},
{
name = kasra;
pos = (319,-76);
}
);
backgroundImage = {
alpha = 80;
angle = 1;
imagePath = "images/MS-ADD-01116-000-00003.jpg";
locked = 1;
pos = (-5002,-2914);
scale = (5,5);
};
layerId = m01;
shapes = (
{
closed = 1;
nodes = (
(397,-10,o),
(425,40,o),
(425,100,cs),
(425,227,o),
(341,374,o),
(239,374,cs),
(118,374,o),
(20,241,o),
(17,123,cs),
(16,34,o),
(118,-10,o),
(277,-10,cs)
);
},
{
closed = 1;
nodes = (
(249,110,l),
(-20,110,l),
(-20,0,l),
(67,0,o),
(162,-9,o),
(249,-10,c)
);
},
{
closed = 1;
nodes = (
(254,168,o),
(248,174,o),
(248,181,cs),
(248,187,o),
(254,193,o),
(261,193,cs),
(267,193,o),
(273,187,o),
(273,181,cs),
(273,174,o),
(267,168,o),
(261,168,cs)
);
}
);
width = 425;
}
);
metricLeft = "=-20";
metricRight = "=0";
},
{
glyphname = "meem-ar.init.round";
kernLeft = meem.alt;
layers = (
{
anchors = (
{
name = damma;
pos = (-21,241);
},
{
name = exit;
},
{
name = fatha;
pos = (200,431);
},
{
name = kasra;
pos = (308,-98);
}
);
backgroundImage = {
alpha = 80;
imagePath = "images/MS-ADD-01116-000-00008.jpg";
locked = 1;
pos = (-3041,-2823);
scale = (5,5);
};
layerId = m01;
shapes = (
{
closed = 1;
nodes = (
(352,-33,o),
(398,-7,o),
(398,94,cs),
(398,194,o),
(330,361,o),
(205,361,cs),
(60,361,o),
(-26,223,o),
(-7,104,cs),
(7,26,o),
(76,-35,o),
(230,-34,cs)
);
},
{
closed = 1;
nodes = (
(197,148,o),
(191,154,o),
(191,161,cs),
(191,167,o),
(197,173,o),
(204,173,cs),
(210,173,o),
(216,167,o),
(216,161,cs),
(216,154,o),
(210,148,o),
(204,148,cs)
);
}
);
width = 398;
}
);
metricLeft = "=-10";
metricRight = "=0";
},
{
glyphname = "noonghunna-ar";
layers = (
{
anchors = (
{
name = damma;
pos = (111,-51);
},
{
name = fatha;
pos = (71,342);
},
{
name = kasra;
pos = (349,-51);
},
{
name = top;
pos = (70,229);
}
);
backgroundImage = {
alpha = 80;
angle = -1;
imagePath = "images/MS-ADD-01116-000-00005.jpg";
locked = 1;
pos = (-3373,-3689);
scale = (5,5);
};
layerId = m01;
shapes = (
{
closed = 1;
nodes = (
(264,-338,o),
(274,-275,o),
(275,-233,cs),
(277,-183,o),
(286,-41,o),
(276,68,cs),
(267,180,o),
(224,267,o),
(122,290,cs),
(109,293,o),
(107,294,o),
(104,283,cs),
(94,231,o),
(45,189,o),
(-2,176,cs),
(-18,172,o),
(-18,157,o),
(0,153,cs),
(118,128,o),
(168,116,o),
(184,-6,cs),
(192,-65,o),
(195,-146,o),
(188,-244,c),
(123,-248,o),
(88,-238,o),
(57,-221,cs),
(53,-218,o),
(47,-216,o),
(43,-222,cs),
(15,-264,o),
(-13,-294,o),
(-37,-304,cs),
(-52,-310,o),
(-48,-322,o),
(-36,-330,cs),
(25,-372,o),
(161,-381,o),
(228,-353,cs)
);
}
);
width = 281;
}
);
metricLeft = "=0@153";
metricRight = "=0";
unicode = 1722;
},
{
glyphname = "heh-ar";
layers = (
{
anchors = (
{
name = damma;
pos = (-73,114);
},
{
name = fatha;
pos = (274,540);
},
{
name = kasra;
pos = (210,-80);
},
{
name = top;
pos = (263,433);
}
);
backgroundImage = {
alpha = 80;
imagePath = "images/MS-ADD-01116-000-00012.jpg";
locked = 1;
pos = (-3021,-3639);
scale = (5,5);
};
layerId = m01;
shapes = (
{
closed = 1;
nodes = (
(295,-8,o),
(355,6,o),
(356,64,cs),
(357,109,o),
(344,402,o),
(315,468,cs),
(303,496,o),
(290,475,o),
(288,470,cs),
(277,433,o),
(245,407,o),
(218,393,cs),
(208,388,o),
(204,381,o),
(208,369,cs),
(217,342,o),
(223,287,o),
(224,248,c),
(284,354,l),
(157,347,o),
(0,274,o),
(0,137,cs),
(0,14,o),
(149,-18,o),
(225,-13,cs)
);
},
{
closed = 1;
nodes = (
(224,152,o),
(218,158,o),
(218,165,cs),
(218,171,o),
(224,177,o),
(231,177,cs),
(237,177,o),
(243,171,o),
(243,165,cs),
(243,158,o),
(237,152,o),
(231,152,cs)
);
}
);
width = 356;
}
);
metricLeft = "=0";
metricRight = "=0";
unicode = 1607;
},
{
glyphname = "heh-ar.fina";
layers = (
{
anchors = (
{
name = damma;
pos = (-74,176);
},
{
name = fatha;
pos = (262,513);
},
{
name = kasra;
pos = (213,-72);
},
{
name = top;
pos = (249,395);
}
);
backgroundImage = {
alpha = 80;
imagePath = "images/MS-ADD-01116-000-00031.jpg";
locked = 1;
pos = (-3171,-2818);
scale = (5,5);
};
layerId = m01;
shapes = (
{
closed = 1;
nodes = (
(262,-2,o),
(309,-3,o),
(352,0,c),
(352,110,l),
(340,110,o),
(338,134,o),
(335,157,cs),
(325,234,o),
(321,378,o),
(302,442,cs),
(298,458,o),
(287,460,o),
(280,445,cs),
(268,416,o),
(256,390,o),
(231,371,cs),
(209,355,o),
(202,365,o),
(204,338,c),
(65,296,o),
(0,221,o),
(0,141,cs),
(0,48,o),
(67,3,o),
(197,0,cs)
);
},
{
closed = 1;
nodes = (
(218,154,o),
(212,160,o),
(212,167,cs),
(212,173,o),
(218,179,o),
(225,179,cs),
(231,179,o),
(237,173,o),
(237,167,cs),
(237,160,o),
(231,154,o),
(225,154,cs)
);
}
);
width = 335;
},
{
anchors = (
{
name = damma;
pos = (-74,176);
},
{
name = fatha;
pos = (262,513);
},
{
name = kasra;
pos = (213,-72);
},
{
name = top;
pos = (249,395);
}
);
associatedMasterId = m01;
backgroundImage = {
alpha = 80;
imagePath = "images/MS-ADD-01116-000-00031.jpg";
locked = 1;
pos = (-3171,-2818);
scale = (5,5);
};
layerId = "9DD22380-8ECD-46EF-8F43-C94BB99A59B0";
name = "26 Feb 23 at 01:48";
shapes = (
{
closed = 1;
nodes = (
(360,0,l),
(360,110,l),
(348,110,o),
(346,134,o),
(344,157,cs),
(338,234,o),
(326,380,o),
(317,449,cs),
(315,468,o),
(296,466,o),
(292,453,cs),
(284,424,o),
(254,382,o),
(235,376,cs),
(222,372,o),
(219,364,o),
(220,354,cs),
(225,303,o),
(235,174,o),
(240,110,c),
(201,110,l),
(201,0,l)
);
}
);
width = 352;
}
);
metricLeft = "=0";
metricRight = "=0@157";
},
{
glyphname = "heh-ar.medi";
layers = (
{
anchors = (
{
name = entry;
pos = (354,0);
},
{
name = exit;
}
);
layerId = m01;
shapes = (
{
closed = 1;
nodes = (
(310,0,l),
(310,110,l),
(-20,110,l),
(-20,0,l)
);
},
{
alignment = -1;
pos = (34,0);
ref = "heh-ar.medi.round";
}
);
width = 354;
}
);
metricLeft = "=-20";
metricRight = "=0@157";
},
{
glyphname = "heh-ar.medi.round";
layers = (
{
anchors = (
{
name = damma;
pos = (-35,199);
},
{
name = entry;
pos = (320,0);
},
{
name = exit;
},
{
name = fatha;
pos = (233,540);
},
{
name = kasra;
pos = (145,-81);
}
);
layerId = m01;
shapes = (
{
closed = 1;
nodes = (
(283,-11,o),
(335,51,o),
(336,110,c),
(324,110,o),
(322,134,o),
(320,157,cs),
(309,281,o),
(283,453,o),
(278,470,cs),
(275,482,o),
(258,484,o),
(252,470,cs),
(241,442,o),
(208,417,o),
(184,407,cs),
(176,403,o),
(172,397,o),
(174,392,cs),
(179,381,o),
(182,359,o),
(188,335,c),
(204,385,l),
(137,368,o),
(55,326,o),
(18,275,cs),
(-20,223,o),
(-42,152,o),
(11,76,cs),
(52,16,o),
(125,-5,o),
(204,-8,c)
);
},
{
closed = 1;
nodes = (
(336,0,l),
(336,110,l),
(200,110,l),
(200,0,l)
);
},
{
closed = 1;
nodes = (
(188,131,o),
(183,137,o),
(183,144,cs),
(183,150,o),
(190,156,o),
(197,156,cs),
(203,155,o),
(208,149,o),
(208,143,cs),
(208,136,o),
(201,130,o),
(195,131,cs)
);
},
{
closed = 1;
nodes = (
(173,240,o),
(167,246,o),
(168,253,cs),
(168,259,o),
(174,265,o),
(181,265,cs),
(187,264,o),
(193,258,o),
(193,252,cs),
(192,245,o),
(186,239,o),
(180,240,cs)
);
}
);
width = 320;
},
{
anchors = (
{
name = damma;
pos = (-35,199);
},
{
name = entry;
pos = (320,0);
},
{
name = exit;
},
{
name = fatha;
pos = (233,540);
},
{
name = kasra;
pos = (145,-81);
}
);
associatedMasterId = m01;
layerId = "9AA13603-34E1-49F7-8FA7-C1EEADDAF280";
name = "26 Feb 23 at 02:03";
shapes = (
{
closed = 1;
nodes = (
(336,0,l),
(336,110,l),
(324,110,o),
(322,134,o),
(320,157,cs),
(314,234,o),
(302,380,o),
(293,449,cs),
(291,468,o),
(272,466,o),
(268,453,cs),
(260,424,o),
(230,382,o),
(211,376,cs),
(198,372,o),
(195,364,o),
(196,354,cs),
(201,303,o),
(211,174,o),
(216,110,c),
(177,110,l),
(177,0,l)
);
}
);
visible = 1;
width = 319;
}
);
metricLeft = "=meem-ar.medi.round";
metricRight = "=0@157";
},
{
glyphname = "heh-ar.init";
layers = (
{
anchors = (
{
name = damma;
pos = (-12,189);
},
{
name = exit;
}
);
backgroundImage = {
alpha = 80;
imagePath = "images/MS-ADD-01116-000-00012.jpg";
locked = 1;
pos = (-2476,-2736);
scale = (5,5);
};
layerId = m01;
shapes = (
{
closed = 1;
nodes = (
(201,0,l),
(58,110,l),
(-20,110,l),
(-20,0,l)
);
},
{
pos = (24,0);
ref = "heh-ar.init.round";
}
);
width = 351;
}
);
metricLeft = "=-20";
metricRight = "=0";
},
{
glyphname = "heh-ar.init.round";
layers = (
{
anchors = (
{
name = damma;
pos = (-36,189);
},
{
name = exit;
},
{
name = fatha;
pos = (214,544);
},
{
name = kasra;
pos = (159,-81);
}
);
layerId = m01;
shapes = (
{
closed = 1;
nodes = (
(293,-4,o),
(329,35,o),
(327,94,cs),
(323,207,o),
(270,455,o),
(263,476,cs),
(259,488,o),
(242,489,o),
(237,475,cs),
(227,446,o),
(196,420,o),
(172,408,cs),
(164,404,o),
(161,398,o),
(163,393,cs),
(169,382,o),
(173,360,o),
(180,337,c),
(193,387,l),
(127,367,o),
(48,321,o),
(13,268,cs),
(-22,214,o),
(-40,142,o),
(17,69,cs),
(61,11,o),
(135,-6,o),
(214,-5,c)
);
},
{
closed = 1;
nodes = (
(191,133,o),
(185,139,o),
(185,146,cs),
(185,152,o),
(191,158,o),
(198,158,cs),
(204,158,o),
(210,152,o),
(210,146,cs),
(210,139,o),
(204,133,o),
(198,133,cs)
);
},
{
closed = 1;
nodes = (
(170,241,o),
(164,247,o),
(164,254,cs),
(164,260,o),
(170,266,o),
(177,266,cs),
(183,266,o),
(189,260,o),
(189,254,cs),
(189,247,o),
(183,241,o),
(177,241,cs)
);
}
);
width = 327;
}
);
metricLeft = "=meem-ar.medi.alt";
metricRight = "=0";
},
{
glyphname = "waw-ar";
layers = (
{
anchors = (
{
name = damma;
pos = (-62,54);
},
{
name = fatha;
pos = (281,479);
},
{
name = kasra;
pos = (259,-124);
},
{
name = top.hamza;
pos = (39,214);
}
);
backgroundImage = {
alpha = 80;
imagePath = "images/MS-ADD-01116-000-00003.jpg";
locked = 1;
pos = (-5778,-2825);
scale = (5,5);
};
layerId = m01;
shapes = (
{
closed = 1;
nodes = (
(339,-54,o),
(452,-32,o),
(491,24,cs),
(505,44,o),
(509,68,o),
(509,98,cs),
(509,189,o),
(430,403,o),
(289,403,cs),
(193,403,o),
(114,317,o),
(114,214,cs),
(114,76,o),
(235,57,o),
(378,83,cs),
(391,85,o),
(393,68,o),
(377,65,cs),
(334,57,o),
(214,44,o),
(131,91,cs),
(120,97,o),
(104,107,o),
(97,95,cs),
(84,72,o),
(39,31,o),
(18,31,cs),
(7,31,o),
(-8,22,o),
(6,8,cs),
(52,-38,o),
(155,-61,o),
(260,-57,cs)
);
},
{
closed = 1;
nodes = (
(270,243,o),
(264,249,o),
(264,256,cs),
(264,262,o),
(270,268,o),
(277,268,cs),
(283,268,o),
(289,262,o),
(289,256,cs),
(289,249,o),
(283,243,o),
(277,243,cs)
);
}
);
width = 509;
}
);
metricLeft = "=0";
metricRight = "=0";
unicode = 1608;
},
{
glyphname = "waw-ar.fina";
layers = (
{
anchors = (
{
name = damma;
pos = (-20,50);
},
{
name = fatha;
pos = (283,405);
},
{
name = kasra;
pos = (261,-208);
},
{
name = top.hamza;
pos = (45,139);
}
);
backgroundImage = {
alpha = 80;
angle = -1;
imagePath = "images/MS-ADD-01116-000-00005.jpg";
locked = 1;
pos = (-5640,-3663);
scale = (5,5);
};
layerId = m01;
shapes = (
{
closed = 1;
nodes = (
(410,-138,o),
(522,-125,o),
(522,0,c),
(522,109,l),
(499,109,o),
(486,126,o),
(480,143,cs),
(472,165,o),
(464,217,o),
(431,260,cs),
(394,308,o),
(361,332,o),
(290,332,cs),
(177,332,o),
(125,224,o),
(125,137,cs),
(125,-3,o),
(237,-17,o),
(380,-6,cs),
(393,-5,o),
(395,-21,o),
(379,-24,cs),
(350,-29,o),
(198,-36,o),
(131,24,cs),
(122,32,o),
(106,42,o),
(99,30,cs),
(86,7,o),
(37,-33,o),
(16,-33,cs),
(5,-33,o),
(-7,-41,o),
(4,-56,cs),
(45,-112,o),
(118,-138,o),
(262,-138,cs)
);
},
{
closed = 1;
nodes = (
(303,147,o),
(297,153,o),
(297,160,cs),
(297,166,o),
(303,172,o),
(310,172,cs),
(316,172,o),
(322,166,o),
(322,160,cs),
(322,153,o),
(316,147,o),
(310,147,cs)
);
}
);
width = 472;
}
);
metricLeft = "=waw-ar";
metricRight = "=-50";
},
{
glyphname = "alefMaksura-ar";
layers = (
{
anchors = (
{
name = bottom;
pos = (387,-146);
},
{
name = damma;
pos = (-97,0);
},
{
name = fatha;
pos = (131,381);
},
{
name = kasra;
pos = (230,-266);
}
);
backgroundImage = {
alpha = 80;
angle = -0.6;
imagePath = "images/MS-ADD-01116-000-00049.jpg";
pos = (-3980,-1797);
scale = (5,5);
};
layerId = m01;
shapes = (
{
closed = 1;
nodes = (
(401,-124,o),
(390,-159,o),
(350,-169,cs),
(242,-195,o),
(-1,-209,o),
(-60,-141,cs),
(-71,-128,o),
(-69,-116,o),
(-51,-116,cs),
(-34,-116,o),
(-4,-81,o),
(12,-54,cs),
(19,-43,o),
(27,-33,o),
(39,-40,cs),
(89,-69,o),
(177,-81,o),
(264,-69,c),
(261,-64,o),
(262,-56,o),
(248,-57,cs),
(71,-75,o),
(0,-12,o),
(0,88,cs),
(0,215,o),
(87,304,o),
(165,304,cs),
(205,304,o),
(235,253,o),
(281,209,cs),
(296,194,o),
(309,199,o),
(328,204,c),
(325,148,o),
(312,95,o),
(282,87,cs),
(236,74,o),
(166,91,o),
(129,117,cs),
(122,122,o),
(113,114,o),
(123,104,cs),
(148,78,o),
(205,54,o),
(314,68,cs),
(337,71,o),
(338,65,o),
(345,53,cs),
(359,27,o),
(383,-14,o),
(392,-67,cs)
);
}
);
width = 395;
}
);
metricLeft = "=0@88";
metricRight = "=0";
unicode = 1609;
},
{
glyphname = "alefMaksura-ar.salt";
layers = (
{
anchors = (
{
name = bottom;
pos = (296,-337);
},
{
name = damma;
pos = (-74,74);
},
{
name = fatha;
pos = (131,381);
},
{
name = kasra;
pos = (380,-115);
}
);
backgroundImage = {
alpha = 80;
angle = -1.5;
imagePath = "images/MS-ADD-01116-000-00029.jpg";
locked = 1;
pos = (-5959,-3599);
scale = (5,5);
};
layerId = m01;
shapes = (
{
closed = 1;
nodes = (
(325,148,o),
(312,95,o),
(282,87,cs),
(236,74,o),
(166,91,o),
(129,117,cs),
(122,122,o),
(113,114,o),
(123,104,cs),
(148,78,o),
(211,60,o),
(276,60,cs),
(298,60,o),
(301,48,o),
(301,37,cs),
(298,-21,o),
(303,-75,o),
(304,-128,cs),
(306,-178,o),
(312,-220,o),
(312,-251,cs),
(312,-311,o),
(277,-337,o),
(237,-343,cs),
(152,-356,o),
(31,-350,o),
(-21,-314,cs),
(-34,-305,o),
(-30,-289,o),
(-12,-289,cs),
(5,-289,o),
(35,-254,o),
(51,-227,cs),
(58,-216,o),
(65,-209,o),
(78,-213,cs),
(128,-230,o),
(176,-233,o),
(236,-226,c),
(220,-247,l),
(221,-176,o),
(227,-76,o),
(206,-50,c),
(236,-55,l),
(72,-61,o),
(0,-12,o),
(0,88,cs),
(0,215,o),
(87,304,o),
(165,304,cs),
(205,304,o),
(235,253,o),
(281,209,cs),
(296,194,o),
(309,199,o),
(328,204,c)
);
}
);
width = 328;
}
);
metricLeft = "=0@88";
metricRight = "=0";
},
{
glyphname = "alefMaksura-ar.fina";
layers = (
{
anchors = (
{
name = bottom;
pos = (374,-235);
},
{
name = damma;
pos = (-75,1);
},
{
name = fatha;
pos = (129,294);
},
{
name = kasra;
pos = (228,-353);
}
);
backgroundImage = {
alpha = 80;
angle = -0.6;
imagePath = "images/MS-ADD-01116-000-00049.jpg";
locked = 1;
pos = (-3980,-1881);
scale = (5,5);
};
layerId = m01;
shapes = (
{
closed = 1;
nodes = (
(327,-22,o),
(328,-25,o),
(335,-37,cs),
(349,-63,o),
(373,-104,o),
(382,-157,cs),
(391,-214,o),
(380,-249,o),
(340,-259,cs),
(232,-285,o),
(-11,-299,o),
(-70,-231,cs),
(-81,-218,o),
(-79,-206,o),
(-61,-206,cs),
(-44,-206,o),
(-14,-171,o),
(2,-144,cs),
(9,-133,o),
(17,-123,o),
(29,-130,cs),
(79,-159,o),
(171,-171,o),
(258,-159,c),
(255,-154,o),
(256,-146,o),
(242,-147,cs),
(81,-156,o),
(-2,-99,o),
(-2,30,cs),
(-2,128,o),
(75,219,o),
(163,217,cs),
(218,216,o),
(238,123,o),
(280,110,c),
(280,0,l),
(206,0,o),
(164,-5,o),
(131,26,cs),
(120,37,o),
(114,29,o),
(121,17,cs),
(146,-24,o),
(250,-23,o),
(304,-22,cs)
);
}
);
width = 280;
}
);
metricLeft = "=0@0";
metricRight = "=0@0";
},
{
glyphname = "alefMaksura-ar.fina.salt";
layers = (
{
anchors = (
{
name = bottom;
pos = (292,-424);
},
{
name = damma;
pos = (-78,-13);
},
{
name = fatha;
pos = (127,294);
},
{
name = kasra;
pos = (376,-202);
}
);
backgroundImage = {
alpha = 80;
imagePath = "images/MS-ADD-01116-000-00017.jpg";
locked = 1;
pos = (-4017,-2786);
scale = (5,5);
};
layerId = m01;
shapes = (
{
closed = 1;
nodes = (
(278,0,l),
(169,0,o),
(162,4,o),
(125,30,cs),
(118,35,o),
(109,27,o),
(119,17,cs),
(144,-9,o),
(207,-27,o),
(272,-27,cs),
(294,-27,o),
(297,-39,o),
(297,-50,cs),
(294,-108,o),
(299,-162,o),
(300,-215,cs),
(302,-265,o),
(308,-307,o),
(308,-338,cs),
(308,-398,o),
(273,-424,o),
(233,-430,cs),
(148,-443,o),
(27,-437,o),
(-25,-401,cs),
(-38,-392,o),
(-34,-376,o),
(-16,-376,cs),
(1,-376,o),
(31,-341,o),
(47,-314,cs),
(54,-303,o),
(61,-296,o),
(74,-300,cs),
(124,-317,o),
(172,-320,o),
(232,-313,c),
(216,-334,l),
(217,-263,o),
(223,-163,o),
(202,-137,c),
(232,-142,l),
(68,-148,o),
(-4,-89,o),
(-4,11,cs),
(-4,138,o),
(79,212,o),
(157,212,cs),
(197,212,o),
(237,107,o),
(278,110,c)
);
}
);
width = 278;
}
);
metricLeft = "=0@60";
metricRight = "=0@0";
},
{
glyphname = "alefMaksura-ar.fina.tooth";
layers = (
{
anchors = (
{
name = bottom;
pos = (348,-230);
},
{
name = damma;
pos = (-88,-82);
},
{
name = entry;
},
{
name = fatha;
pos = (-83,272);
},
{
name = kasra;
pos = (197,-338);
}
);
backgroundImage = {
alpha = 80;
imagePath = "images/MS-ADD-01116-000-00018.jpg";
locked = 1;
pos = (-3154,-2556);
scale = (5,5);
};
layerId = m01;
shapes = (
{
closed = 1;
nodes = (
(119,0,l),
(119,-5,o),
(119,-14,o),
(138,-17,cs),
(157,-20,o),
(177,-26,o),
(289,-21,cs),
(312,-20,o),
(313,-24,o),
(320,-36,cs),
(334,-62,o),
(346,-95,o),
(355,-148,cs),
(364,-205,o),
(353,-240,o),
(313,-250,cs),
(205,-276,o),
(-34,-279,o),
(-93,-223,cs),
(-105,-211,o),
(-102,-198,o),
(-84,-198,cs),
(-67,-198,o),
(-37,-168,o),
(-21,-141,cs),
(-14,-130,o),
(-6,-120,o),
(6,-127,cs),
(56,-156,o),
(144,-166,o),
(237,-154,c),
(234,-149,o),
(235,-141,o),
(221,-142,cs),
(19,-151,o),
(0,-107,o),
(0,0,c),
(0,57,l),
(119,57,l)
);
}
);
width = 358;
}
);
metricLeft = "=0@0";
metricRight = "=0";
},
{
glyphname = "alefMaksura-ar.fina.tooth2";
layers = (
{
anchors = (
{
name = bottom;
pos = (421,-240);
},
{
name = damma;
pos = (-75,1);
},
{
name = fatha;
pos = (129,294);
},
{
name = kasra;
pos = (228,-353);
}
);
backgroundImage = {
alpha = 80;
angle = -0.6;
imagePath = "images/MS-ADD-01116-000-00049.jpg";
locked = 1;
pos = (-3980,-1881);
scale = (5,5);
};
layerId = m01;
shapes = (
{
closed = 1;
nodes = (
(446,-211,o),
(435,-246,o),
(395,-256,cs),
(287,-282,o),
(-3,-296,o),
(-62,-228,cs),
(-73,-215,o),
(-71,-203,o),
(-53,-203,cs),
(-36,-203,o),
(-6,-168,o),
(10,-141,cs),
(17,-130,o),
(25,-120,o),
(37,-127,cs),
(87,-156,o),
(176,-174,o),
(309,-156,c),
(306,-151,o),
(307,-143,o),
(293,-144,cs),
(100,-162,o),
(-2,-114,o),
(-2,30,cs),
(-2,128,o),
(75,219,o),
(163,217,cs),
(218,216,o),
(238,123,o),
(280,110,c),
(280,0,l),
(206,0,o),
(164,-5,o),
(131,26,cs),
(120,37,o),
(114,29,o),
(121,17,cs),
(146,-24,o),
(250,-26,o),
(359,-19,cs),
(382,-18,o),
(383,-22,o),
(390,-34,cs),
(404,-60,o),
(428,-101,o),
(437,-154,cs)
);
}
);
width = 265;
}
);
metricLeft = "=0@0";
metricRight = "=-15@0";
},
{
glyphname = "alefMaksura-ar.fina.tooth2.salt";
layers = (
{
anchors = (
{
name = bottom;
pos = (292,-424);
},
{
name = damma;
pos = (-78,-13);
},
{
name = fatha;
pos = (127,294);
},
{
name = kasra;
pos = (376,-202);
}
);
backgroundImage = {
alpha = 80;
imagePath = "images/MS-ADD-01116-000-00017.jpg";
locked = 1;
pos = (-4017,-2786);
scale = (5,5);
};
layerId = m01;
shapes = (
{
closed = 1;
nodes = (
(278,0,l),
(194,0,o),
(159,10,o),
(125,33,cs),
(118,38,o),
(109,32,o),
(119,22,cs),
(155,-17,o),
(263,-19,o),
(349,-19,cs),
(371,-19,o),
(377,-39,o),
(378,-50,cs),
(385,-108,o),
(384,-162,o),
(385,-215,cs),
(387,-265,o),
(393,-307,o),
(393,-338,cs),
(393,-398,o),
(358,-430,o),
(318,-437,cs),
(233,-452,o),
(52,-453,o),
(0,-415,cs),
(-13,-406,o),
(-9,-390,o),
(9,-390,cs),
(26,-390,o),
(56,-355,o),
(72,-328,cs),
(79,-317,o),
(86,-310,o),
(99,-314,cs),
(167,-337,o),
(227,-341,o),
(324,-321,c),
(296,-334,l),
(297,-252,o),
(292,-130,o),
(258,-129,c),
(331,-128,l),
(97,-165,o),
(-4,-107,o),
(-4,11,cs),
(-4,138,o),
(79,212,o),
(157,212,cs),
(197,212,o),
(237,107,o),
(278,110,c)
);
}
);
width = 278;
}
);
metricLeft = "=0@60";
metricRight = "=0@0";
},
{
glyphname = "yehbarree-ar";
layers = (
{
anchors = (
{
name = bottom;
pos = (486,-45);
},
{
name = damma;
pos = (-74,152);
},
{
name = fatha;
pos = (150,421);
},
{
name = kasra;
pos = (286,-74);
}
);
backgroundImage = {
alpha = 80;
angle = 0.2;
imagePath = "images/MS-ADD-01116-000-00058.jpg";
locked = 1;
pos = (-3053,-3591);
scale = (5,5);
};
layerId = m01;
shapes = (
{
closed = 1;
nodes = (
(583,-7,o),
(887,-3,o),
(991,24,cs),
(1034,35,o),
(1052,52,o),
(1065,104,cs),
(1068,117,o),
(1064,122,o),
(1056,120,cs),
(901,76,o),
(479,82,o),
(320,98,cs),
(184,112,o),
(137,148,o),
(112,174,cs),
(102,184,o),
(112,198,o),
(118,192,cs),
(155,150,o),
(238,114,o),
(284,127,cs),
(314,135,o),
(351,176,o),
(347,244,c),
(328,239,o),
(307,234,o),
(292,249,cs),
(246,293,o),
(216,343,o),
(173,344,cs),
(97,345,o),
(0,255,o),
(0,144,cs),
(0,32,o),
(123,-7,o),
(383,-7,cs)
);
},
{
closed = 0;
nodes = (
(491,193,l)
);
}
);
width = 1066;
}
);
metricLeft = "=0";
metricRight = "=0";
unicode = 1746;
},
{
glyphname = "yehbarree-ar.fina";
layers = (
{
anchors = (
{
name = bottom;
pos = (486,-160);
},
{
name = damma;
pos = (-74,37);
},
{
name = entry;
pos = (312,0);
},
{
name = fatha;
pos = (150,306);
},
{
name = kasra;
pos = (286,-189);
}
);
backgroundImage = {
alpha = 80;
angle = -1.5;
imagePath = "images/MS-ADD-01116-000-00029.jpg";
locked = 1;
pos = (-2646,-2721);
scale = (5,5);
};
layerId = m01;
shapes = (
{
closed = 1;
nodes = (
(312,110,l),
(268,148,o),
(247,225,o),
(177,225,cs),
(96,225,o),
(2,128,o),
(0,29,cs),
(-3,-95,o),
(123,-124,o),
(383,-124,cs),
(583,-124,o),
(887,-105,o),
(952,-95,cs),
(1011,-86,o),
(1029,-64,o),
(1065,-21,cs),
(1074,-11,o),
(1064,-3,o),
(1056,-5,cs),
(901,-36,o),
(471,-41,o),
(312,-22,cs),
(194,-8,o),
(177,14,o),
(146,35,cs),
(134,43,o),
(143,59,o),
(155,50,cs),
(196,22,o),
(227,1,o),
(312,0,c)
);
}
);
width = 1069;
}
);
metricLeft = "=0";
metricRight = "=0";
},
{
glyphname = "yehbarree-ar.fina.baseline";
layers = (
{
anchors = (
{
name = bottom;
pos = (486,-45);
},
{
name = damma;
pos = (-74,152);
},
{
name = entry;
pos = (302,115);
},
{
name = fatha;
pos = (150,421);
},
{
name = kasra;
pos = (286,-74);
}
);
backgroundImage = {
alpha = 80;
angle = -1.5;
imagePath = "images/MS-ADD-01116-000-00029.jpg";
locked = 1;
pos = (-2646,-2606);
scale = (5,5);
};
layerId = m01;
shapes = (
{
closed = 1;
nodes = (
(583,-9,o),
(905,9,o),
(1010,32,cs),
(1065,44,o),
(1090,71,o),
(1130,115,cs),
(1139,125,o),
(1129,133,o),
(1121,131,cs),
(966,87,o),
(478,77,o),
(319,93,cs),
(222,103,o),
(172,129,o),
(141,150,cs),
(128,158,o),
(137,173,o),
(149,165,cs),
(198,132,o),
(268,108,o),
(346,117,c),
(346,244,l),
(258,246,o),
(278,341,o),
(173,341,cs),
(97,341,o),
(-1,240,o),
(0,144,cs),
(1,18,o),
(123,-9,o),
(383,-9,cs)
);
}
);
width = 1134;
}
);
metricLeft = "=0";
metricRight = "=0";
},
{
glyphname = "kashida-ar.real";
layers = (
{
anchors = (
{
name = entry;
pos = (100,0);
},
{
name = exit;
}
);
layerId = m01;
shapes = (
{
closed = 1;
nodes = (
(100,0,l),
(100,110,l),
(-20,110,l),
(-20,0,l)
);
}
);
width = 100;
}
);
metricLeft = "=-20";
metricRight = "=0";
},
{
glyphname = "lam_lam_heh-ar";
layers = (
{
anchors = (
{
name = caret_1;
pos = (335,0);
},
{
name = caret_2;
pos = (447,0);
},
{
name = damma_3;
pos = (-74,103);
},
{
name = fatha_1;
pos = (478,689);
},
{
name = fatha_2;
pos = (319,578);
},
{
name = fatha_3;
pos = (216,442);
},
{
name = kasra_1;
pos = (517,-67);
},
{
name = kasra_2;
pos = (364,-79);
},
{
name = kasra_3;
pos = (173,-86);
}
);
backgroundImage = {
alpha = 80;
angle = -1;
imagePath = "images/MS-ADD-01116-000-00005.jpg";
locked = 1;
pos = (-1858,-3691);
scale = (5,5);
};
layerId = m01;
shapes = (
{
closed = 1;
nodes = (
(292,-16,o),
(339,-15,o),
(432,-6,cs),
(506,1,o),
(555,16,o),
(550,116,cs),
(543,263,o),
(535,460,o),
(526,656,cs),
(525,679,o),
(508,685,o),
(498,666,cs),
(486,643,o),
(452,615,o),
(427,584,cs),
(420,575,o),
(425,564,o),
(426,554,cs),
(442,393,o),
(453,239,o),
(455,112,c),
(450,110,o),
(439,110,o),
(439,124,cs),
(438,277,o),
(420,436,o),
(397,585,cs),
(394,607,o),
(381,599,o),
(377,587,cs),
(363,552,o),
(345,527,o),
(313,502,cs),
(303,494,o),
(302,482,o),
(305,466,cs),
(329,354,o),
(342,243,o),
(345,110,c),
(340,107,o),
(332,112,o),
(331,121,cs),
(324,224,o),
(319,322,o),
(296,403,cs),
(293,414,o),
(283,416,o),
(278,404,cs),
(264,372,o),
(256,346,o),
(231,327,cs),
(217,317,o),
(202,314,o),
(203,305,cs),
(204,298,l),
(87,295,o),
(2,218,o),
(0,127,cs),
(-2,44,o),
(67,-11,o),
(197,-14,cs)
);
},
{
closed = 1;
nodes = (
(208,130,o),
(202,136,o),
(202,143,cs),
(202,149,o),
(208,155,o),
(215,155,cs),
(221,155,o),
(227,149,o),
(227,143,cs),
(227,136,o),
(221,130,o),
(215,130,cs)
);
}
);
width = 550;
}
);
metricLeft = "=0";
metricRight = "=0";
},
{
glyphname = "fehDotless_alef-ar";
layers = (
{
anchors = (
{
name = bottom.hamza_2;
pos = (84,-76);
},
{
name = caret_1;
pos = (126,0);
},
{
name = damma_1;
pos = (129,262);
},
{
name = damma_2;
pos = (-56,66);
},
{
name = fatha_1;
pos = (348,527);
},
{
name = fatha_2;
pos = (186,599);
},
{
name = kasra_1;
pos = (468,-69);
},
{
name = kasra_2;
pos = (84,-76);
},
{
name = top.hamza_2;
pos = (186,599);
},
{
name = top.madda_2;
pos = (-75,599);
},
{
name = top_1;
pos = (232,432);
}
);
backgroundImage = {
alpha = 80;
imagePath = "images/MS-ADD-01116-000-00005.jpg";
locked = 1;
pos = (-3926,-3724);
scale = (5,5);
};
layerId = m01;
shapes = (
{
closed = 1;
nodes = (
(499,-10,o),
(560,23,o),
(560,122,cs),
(560,309,o),
(457,459,o),
(339,460,cs),
(208,461,o),
(126,344,o),
(147,213,cs),
(160,134,o),
(247,95,o),
(436,114,cs),
(450,115,o),
(449,98,o),
(437,97,cs),
(293,82,o),
(129,97,o),
(106,225,cs),
(94,291,o),
(117,516,o),
(105,692,cs),
(104,712,o),
(90,712,o),
(84,701,cs),
(64,665,o),
(39,644,o),
(13,628,cs),
(-4,617,o),
(-1,599,o),
(6,532,cs),
(16,432,o),
(7,368,o),
(9,186,cs),
(10,141,o),
(10,68,o),
(53,30,cs),
(92,-6,o),
(172,-14,o),
(286,-13,cs)
);
},
{
closed = 1;
nodes = (
(359,265,o),
(353,271,o),
(353,278,cs),
(353,284,o),
(359,290,o),
(366,290,cs),
(372,290,o),
(378,284,o),
(378,278,cs),
(378,271,o),
(372,265,o),
(366,265,cs)
);
}
);
width = 560;
}
);
metricLeft = "=0";
metricRight = "=0";
},
{
glyphname = "lam_alef-ar";
layers = (
{
anchors = (
{
name = bottom.hamza_2;
pos = (109,-104);
},
{
name = caret_1;
pos = (281,0);
},
{
name = fatha_1;
pos = (-70,666);
},
{
name = fatha_2;
pos = (482,697);
},
{
name = kasra_1;
pos = (495,-99);
},
{
name = kasra_2;
pos = (109,-104);
},
{
name = top.hamza_2;
pos = (482,697);
}
);
backgroundImage = {
alpha = 80;
imagePath = "images/MS-ADD-01116-000-00003.jpg";
locked = 1;
pos = (-4741,-1855);
scale = (5,5);
};
layerId = m01;
shapes = (
{
closed = 1;
nodes = (
(543,-12,o),
(578,27,o),
(538,77,cs),
(470,163,o),
(404,242,o),
(341,328,c),
(379,453,o),
(399,588,o),
(399,757,cs),
(399,782,o),
(387,785,o),
(374,767,cs),
(353,737,o),
(331,715,o),
(303,697,cs),
(295,692,o),
(295,682,o),
(297,665,cs),
(307,590,o),
(302,489,o),
(281,413,c),
(214,515,o),
(150,628,o),
(91,771,cs),
(85,785,o),
(76,784,o),
(71,772,cs),
(55,731,o),
(34,701,o),
(9,681,cs),
(-3,672,o),
(-1,661,o),
(4,651,cs),
(64,519,o),
(126,390,o),
(204,274,c),
(142,190,o),
(60,90,o),
(27,30,c),
(6,27,o),
(-1,4,o),
(15,-2,cs),
(124,-42,o),
(340,-50,o),
(500,-20,cs)
);
},
{
closed = 1;
nodes = (
(281,131,o),
(275,137,o),
(275,144,cs),
(275,150,o),
(281,156,o),
(288,156,cs),
(294,156,o),
(300,150,o),
(300,144,cs),
(300,137,o),
(294,131,o),
(288,131,cs)
);
}
);
width = 556;
}
);
metricLeft = "=0";
metricRight = "=0";
},
{
glyphname = "lam_alef-ar.fina";
layers = (
{
anchors = (
{
name = bottom.hamza_2;
pos = (104,-68);
},
{
name = caret_1;
pos = (247,0);
},
{
name = fatha_1;
pos = (-43,624);
},
{
name = fatha_2;
pos = (438,580);
},
{
name = kasra_1;
pos = (420,-63);
},
{
name = kasra_2;
pos = (104,-68);
},
{
name = top.hamza_2;
pos = (438,580);
}
);
backgroundImage = {
alpha = 80;
angle = 1.2;
imagePath = "images/MS-ADD-01116-000-00040.jpg";
locked = 1;
pos = (-1205,-1737);
scale = (5,5);
};
layerId = m01;
shapes = (
{
closed = 1;
nodes = (
(518,110,l),
(429,135,o),
(337,307,o),
(279,400,cs),
(213,507,o),
(149,653,o),
(108,760,cs),
(103,774,o),
(94,773,o),
(89,761,cs),
(73,720,o),
(52,690,o),
(27,670,cs),
(15,661,o),
(17,650,o),
(22,640,cs),
(63,546,o),
(129,398,o),
(215,276,c),
(296,348,l),
(338,485,o),
(370,603,o),
(370,745,cs),
(370,769,o),
(359,772,o),
(347,754,cs),
(327,724,o),
(296,693,o),
(280,688,cs),
(268,685,o),
(269,671,o),
(269,656,cs),
(269,597,o),
(244,397,o),
(227,368,cs),
(154,245,o),
(58,126,o),
(10,68,cs),
(-4,52,o),
(-2,46,o),
(10,34,cs),
(54,-13,o),
(327,1,o),
(518,0,c)
);
},
{
closed = 1;
nodes = (
(245,167,o),
(239,173,o),
(239,180,cs),
(239,186,o),
(245,192,o),
(252,192,cs),
(258,192,o),
(264,186,o),
(264,180,cs),
(264,173,o),
(258,167,o),
(252,167,cs)
);
}
);
width = 508;
}
);
metricLeft = "=0";
metricRight = "=-10";
},
{
glyphname = "endofayah-ar";
layers = (
{
guides = (
{
angle = 90;
pos = (370,208);
},
{
angle = 180;
pos = (350,104);
},
{
angle = 202.5;
pos = (370,208);
},
{
angle = 247.5;
pos = (370,208);
},
{
angle = 225;
pos = (370,208);
}
);
layerId = m01;
shapes = (
{
closed = 1;
nodes = (
(498,-22,o),
(600,82,o),
(600,208,cs),
(600,334,o),
(498,438,o),
(370,438,cs),
(244,438,o),
(140,334,o),
(140,208,cs),
(140,82,o),
(244,-22,o),
(370,-22,cs)
);
},
{
closed = 1;
nodes = (
(297,0,o),
(320,67,o),
(348,131,c),
(342,133,o),
(336,135,o),
(331,138,c),
(307,74,o),
(273,10,o),
(222,60,cs),
(173,111,o),
(235,145,o),
(300,168,c),
(297,173,o),
(294,179,o),
(292,186,c),
(229,158,o),
(162,136,o),
(162,208,cs),
(162,281,o),
(229,258,o),
(293,230,c),
(295,236,o),
(297,242,o),
(300,248,c),
(235,272,o),
(173,305,o),
(222,356,cs),
(274,406,o),
(307,342,o),
(331,277,c),
(336,280,o),
(342,283,o),
(348,285,c),
(320,349,o),
(298,416,o),
(370,416,cs),
(442,416,o),
(420,349,o),
(392,285,c),
(398,283,o),
(404,281,o),
(409,278,c),
(433,342,o),
(467,406,o),
(518,356,cs),
(567,305,o),
(505,271,o),
(440,248,c),
(443,242,o),
(446,236,o),
(447,230,c),
(511,258,o),
(578,280,o),
(578,208,cs),
(578,136,o),
(511,158,o),
(447,186,c),
(445,180,o),
(443,174,o),
(440,168,c),
(505,145,o),
(567,111,o),
(518,60,cs),
(467,11,o),
(433,73,o),
(410,138,c),
(404,135,o),
(398,132,o),
(392,131,c),
(420,67,o),
(442,0,o),
(370,0,cs)
);
},
{
closed = 1;
nodes = (
(400,156,o),
(422,180,o),
(422,208,cs),
(422,236,o),
(400,260,o),
(370,260,cs),
(342,260,o),
(318,236,o),
(318,208,cs),
(318,180,o),
(342,156,o),
(370,156,cs)
);
}
);
width = 740;
},
{
associatedMasterId = m01;
attr = {
colorPalette = 1;
};
layerId = "38461C08-F54E-4BE4-9620-3C6CF5840E38";
shapes = (
{
closed = 1;
nodes = (
(498,-22,o),
(600,82,o),
(600,208,cs),
(600,334,o),
(498,438,o),
(370,438,cs),
(244,438,o),
(140,334,o),
(140,208,cs),
(140,82,o),
(244,-22,o),
(370,-22,cs)
);
}
);
width = 740;
},
{
associatedMasterId = m01;
attr = {
colorPalette = 2;
};
layerId = "A1159DA2-F385-4606-A8B3-A130608730DA";
shapes = (
{
closed = 1;
nodes = (
(498,-22,o),
(600,82,o),
(600,208,cs),
(600,334,o),
(498,438,o),
(370,438,cs),
(244,438,o),
(140,334,o),
(140,208,cs),
(140,82,o),
(244,-22,o),
(370,-22,cs)
);
},
{
closed = 1;
nodes = (
(297,0,o),
(320,67,o),
(348,131,c),
(342,133,o),
(336,135,o),
(331,138,c),
(307,74,o),
(273,10,o),
(222,60,cs),
(173,111,o),
(235,145,o),
(300,168,c),
(297,173,o),
(294,179,o),
(292,186,c),
(229,158,o),
(162,136,o),
(162,208,cs),
(162,281,o),
(229,258,o),
(293,230,c),
(295,236,o),
(297,242,o),
(300,248,c),
(235,272,o),
(173,305,o),
(222,356,cs),
(274,406,o),
(307,342,o),
(331,277,c),
(336,280,o),
(342,283,o),
(348,285,c),
(320,349,o),
(298,416,o),
(370,416,cs),
(442,416,o),
(420,349,o),
(392,285,c),
(398,283,o),
(404,281,o),
(409,278,c),
(433,342,o),
(467,406,o),
(518,356,cs),
(567,305,o),
(505,271,o),
(440,248,c),
(443,242,o),
(446,236,o),
(447,230,c),
(511,258,o),
(578,280,o),
(578,208,cs),
(578,136,o),
(511,158,o),
(447,186,c),
(445,180,o),
(443,174,o),
(440,168,c),
(505,145,o),
(567,111,o),
(518,60,cs),
(467,11,o),
(433,73,o),
(410,138,c),
(404,135,o),
(398,132,o),
(392,131,c),
(420,67,o),
(442,0,o),
(370,0,cs)
);
},
{
closed = 1;
nodes = (
(400,156,o),
(422,180,o),
(422,208,cs),
(422,236,o),
(400,260,o),
(370,260,cs),
(342,260,o),
(318,236,o),
(318,208,cs),
(318,180,o),
(342,156,o),
(370,156,cs)
);
}
);
width = 740;
},
{
associatedMasterId = m01;
attr = {
colorPalette = 0;
};
guides = (
{
angle = 90;
pos = (370,208);
},
{
angle = 180;
pos = (370,208);
},
{
angle = 202.5;
pos = (370,208);
},
{
angle = 247.5;
pos = (370,208);
},
{
angle = 225;
pos = (370,208);
}
);
layerId = "F1582E70-E757-409A-AE56-0C2D8B4714EF";
shapes = (
{
closed = 1;
nodes = (
(306,380,o),
(322,396,o),
(322,418,cs),
(322,438,o),
(306,454,o),
(286,454,cs),
(264,454,o),
(248,438,o),
(248,418,cs),
(248,396,o),
(264,380,o),
(286,380,cs)
);
},
{
closed = 1;
nodes = (
(476,380,o),
(492,396,o),
(492,418,cs),
(492,438,o),
(476,454,o),
(456,454,cs),
(434,454,o),
(418,438,o),
(418,418,cs),
(418,396,o),
(434,380,o),
(456,380,cs)
);
},
{
closed = 1;
nodes = (
(306,-38,o),
(322,-22,o),
(322,0,cs),
(322,20,o),
(306,36,o),
(286,36,cs),
(264,36,o),
(248,20,o),
(248,0,cs),
(248,-22,o),
(264,-38,o),
(286,-38,cs)
);
},
{
closed = 1;
nodes = (
(476,-38,o),
(492,-22,o),
(492,0,cs),
(492,20,o),
(476,36,o),
(456,36,cs),
(434,36,o),
(418,20,o),
(418,0,cs),
(418,-22,o),
(434,-38,o),
(456,-38,cs)
);
},
{
closed = 1;
nodes = (
(182,256,o),
(198,272,o),
(198,294,cs),
(198,314,o),
(182,330,o),
(162,330,cs),
(140,330,o),
(124,314,o),
(124,294,cs),
(124,272,o),
(140,256,o),
(162,256,cs)
);
},
{
closed = 1;
nodes = (
(182,86,o),
(198,102,o),
(198,124,cs),
(198,144,o),
(182,160,o),
(162,160,cs),
(140,160,o),
(124,144,o),
(124,124,cs),
(124,102,o),
(140,86,o),
(162,86,cs)
);
},
{
closed = 1;
nodes = (
(600,256,o),
(616,272,o),
(616,294,cs),
(616,314,o),
(600,330,o),
(580,330,cs),
(558,330,o),
(542,314,o),
(542,294,cs),
(542,272,o),
(558,256,o),
(580,256,cs)
);
},
{
closed = 1;
nodes = (
(600,86,o),
(616,102,o),
(616,124,cs),
(616,144,o),
(600,160,o),
(580,160,cs),
(558,160,o),
(542,144,o),
(542,124,cs),
(542,102,o),
(558,86,o),
(580,86,cs)
);
}
);
width = 740;
}
);
unicode = 1757;
},
{
glyphname = "endofayah-ar.five";
layers = (
{
layerId = m01;
shapes = (
{
closed = 1;
nodes = (
(-116,4,o),
(-73,10,o),
(-71,68,cs),
(-71,103,o),
(-63,308,o),
(-84,356,cs),
(-93,376,o),
(-99,364,o),
(-107,356,cs),
(-133,330,o),
(-151,308,o),
(-172,292,cs),
(-181,285,o),
(-182,274,o),
(-179,265,cs),
(-177,257,o),
(-174,248,o),
(-173,238,c),
(-253,225,o),
(-331,188,o),
(-331,106,cs),
(-331,16,o),
(-222,-4,o),
(-167,0,cs)
);
},
{
closed = 1;
nodes = (
(-159,122,o),
(-156,126,o),
(-156,130,cs),
(-156,135,o),
(-159,138,o),
(-164,138,cs),
(-168,138,o),
(-172,135,o),
(-172,130,cs),
(-172,126,o),
(-168,122,o),
(-164,122,cs)
);
},
{
closed = 1;
nodes = (
(-221,12,o),
(-315,29,o),
(-315,106,cs),
(-315,182,o),
(-240,213,o),
(-157,224,c),
(-155,243,o),
(-161,259,o),
(-164,269,cs),
(-166,276,o),
(-166,276,o),
(-162,279,cs),
(-140,296,o),
(-121,318,o),
(-97,344,c),
(-80,290,o),
(-87,102,o),
(-87,68,cs),
(-89,24,o),
(-118,20,o),
(-168,16,cs)
);
}
);
width = 0;
},
{
associatedMasterId = m01;
attr = {
colorPalette = 1;
};
backgroundImage = {
alpha = 80;
imagePath = "images/MS-ADD-01116-000-00012.jpg";
locked = 1;
pos = (-3187,-2732);
scale = (5,5);
};
layerId = "38461C08-F54E-4BE4-9620-3C6CF5840E38";
shapes = (
{
closed = 1;
nodes = (
(-116,4,o),
(-73,10,o),
(-71,68,cs),
(-71,103,o),
(-63,308,o),
(-84,356,cs),
(-93,376,o),
(-99,364,o),
(-107,356,cs),
(-133,330,o),
(-151,308,o),
(-172,292,cs),
(-181,285,o),
(-182,274,o),
(-179,265,cs),
(-177,257,o),
(-174,248,o),
(-173,238,c),
(-253,225,o),
(-331,188,o),
(-331,106,cs),
(-331,16,o),
(-222,-4,o),
(-167,0,cs)
);
}
);
width = 0;
},
{
associatedMasterId = m01;
attr = {
colorPalette = 4;
};
layerId = "3C156617-8D36-4104-AFC9-5789B45D6171";
name = "24 Feb 23 at 20:06";
shapes = (
{
closed = 1;
nodes = (
(-159,122,o),
(-156,126,o),
(-156,130,cs),
(-156,135,o),
(-159,138,o),
(-164,138,cs),
(-168,138,o),
(-172,135,o),
(-172,130,cs),
(-172,126,o),
(-168,122,o),
(-164,122,cs)
);
},
{
closed = 1;
nodes = (
(-116,4,o),
(-73,10,o),
(-71,68,cs),
(-71,103,o),
(-63,308,o),
(-84,356,cs),
(-93,376,o),
(-99,364,o),
(-107,356,cs),
(-133,330,o),
(-151,308,o),
(-172,292,cs),
(-181,285,o),
(-182,274,o),
(-179,265,cs),
(-177,257,o),
(-174,248,o),
(-173,238,c),
(-253,225,o),
(-331,188,o),
(-331,106,cs),
(-331,16,o),
(-222,-4,o),
(-167,0,cs)
);
},
{
closed = 1;
nodes = (
(-221,6,o),
(-321,24,o),
(-321,106,cs),
(-321,184,o),
(-245,218,o),
(-163,229,c),
(-162,245,o),
(-167,258,o),
(-169,268,c),
(-172,275,o),
(-171,280,o),
(-166,284,cs),
(-144,301,o),
(-126,323,o),
(-100,349,cs),
(-89,359,o),
(-94,355,o),
(-93,352,cs),
(-73,306,o),
(-81,103,o),
(-81,68,cs),
(-83,19,o),
(-117,14,o),
(-168,10,cs)
);
}
);
width = 0;
}
);
metricWidth = "=0";
},
{
glyphname = "dotabove-ar";
layers = (
{
anchors = (
{
name = _top;
pos = (79,38);
}
);
layerId = m01;
shapes = (
{
closed = 1;
nodes = (
(53,40,o),
(80,68,o),
(104,99,cs),
(105,100,o),
(106,103,o),
(106,105,cs),
(106,111,o),
(102,115,o),
(96,115,cs),
(93,115,o),
(90,114,o),
(88,111,cs),
(64,82,o),
(39,54,o),
(10,31,cs),
(7,29,o),
(6,26,o),
(6,23,cs),
(6,17,o),
(10,13,o),
(16,13,cs),
(18,13,o),
(21,14,o),
(22,15,cs)
);
}
);
width = 110;
},
{
anchors = (
{
name = _top;
pos = (90,50);
}
);
associatedMasterId = m01;
layerId = "1951D83C-027C-46A2-BBE7-A485E6845D98";
name = "1 May 21, 00:30";
shapes = (
{
closed = 1;
nodes = (
(128,152,l),
(112,164,l),
(0,12,l),
(16,0,l)
);
}
);
width = 128;
},
{
anchors = (
{
name = _top;
pos = (79,38);
}
);
associatedMasterId = m01;
layerId = "35FFA398-3489-4430-A27C-01EFA9C459D5";
name = "25 Feb 23 at 15:48";
shapes = (
{
closed = 1;
nodes = (
(52,38,o),
(81,71,o),
(106,100,cs),
(117,113,o),
(101,126,o),
(91,113,cs),
(67,84,o),
(36,52,o),
(6,27,cs),
(-8,14,o),
(4,1,o),
(19,13,cs)
);
}
);
width = 110;
}
);
metricLeft = "=0";
metricRight = "=0";
},
{
glyphname = "dotabove-ar.reh";
layers = (
{
anchors = (
{
name = _top;
pos = (63,50);
}
);
layerId = m01;
shapes = (
{
closed = 1;
nodes = (
(53,95,o),
(29,68,o),
(3,41,cs),
(1,39,o),
(0,37,o),
(0,34,cs),
(0,28,o),
(4,24,o),
(10,24,cs),
(13,24,o),
(15,25,o),
(17,27,cs),
(43,54,o),
(69,83,o),
(92,112,cs),
(93,113,o),
(94,116,o),
(94,118,cs),
(94,124,o),
(90,128,o),
(84,128,cs),
(81,128,o),
(78,127,o),
(76,124,cs)
);
}
);
width = 94;
}
);
metricLeft = "=0";
metricRight = "=0";
},
{
glyphname = "hamzabelow-ar";
layers = (
{
anchors = (
{
name = _bottom.hamza;
pos = (75,75);
}
);
layerId = m01;
shapes = (
{
ref = "fatha-ar";
}
);
width = 150;
},
{
associatedMasterId = m01;
attr = {
colorPalette = 1;
};
layerId = "BF707C9A-F0E2-4E2C-95C3-19D70D58E014";
name = "Regular 25 Jun 22, 20:50";
shapes = (
{
closed = 1;
nodes = (
(116,0,o),
(150,35,o),
(150,75,cs),
(150,116,o),
(116,150,o),
(75,150,cs),
(35,150,o),
(0,116,o),
(0,75,cs),
(0,35,o),
(35,0,o),
(75,0,cs)
);
}
);
width = 150;
}
);
metricLeft = "=0";
metricRight = "=0";
unicode = 1621;
},
{
glyphname = "fatha-ar";
layers = (
{
anchors = (
{
name = _fatha;
pos = (75,75);
}
);
layerId = m01;
shapes = (
{
closed = 1;
nodes = (
(116,0,o),
(150,35,o),
(150,75,cs),
(150,116,o),
(116,150,o),
(75,150,cs),
(35,150,o),
(0,116,o),
(0,75,cs),
(0,35,o),
(35,0,o),
(75,0,cs)
);
},
{
closed = 1;
nodes = (
(41,17,o),
(17,41,o),
(17,75,cs),
(17,109,o),
(41,133,o),
(75,133,cs),
(109,133,o),
(133,109,o),
(133,75,cs),
(133,41,o),
(109,17,o),
(75,17,cs)
);
}
);
width = 150;
},
{
associatedMasterId = m01;
attr = {
colorPalette = 0;
};
layerId = "7AFB0887-D8D9-481C-81E1-5E6720F61C9F";
name = "Regular 25 Jun 22, 20:51";
shapes = (
{
closed = 1;
nodes = (
(116,0,o),
(150,35,o),
(150,75,cs),
(150,116,o),
(116,150,o),
(75,150,cs),
(35,150,o),
(0,116,o),
(0,75,cs),
(0,35,o),
(35,0,o),
(75,0,cs)
);
}
);
width = 150;
}
);
metricLeft = "=0";
metricRight = "=0";
unicode = 1614;
},
{
category = Connector;
glyphname = connector.1;
layers = (
{
anchors = (
{
name = entry;
}
);
layerId = m01;
shapes = (
{
closed = 1;
nodes = (
(-115,0,l),
(71,0,l),
(71,104,l),
(32,134,o),
(-4,169,o),
(-32,212,cs),
(-56,247,o),
(-49,247,o),
(-115,244,c)
);
}
);
width = 71;
}
);
metricRight = "=0";
},
{
category = Connector;
glyphname = connector.2;
layers = (
{
anchors = (
{
name = entry;
pos = (-42,0);
}
);
layerId = m01;
shapes = (
{
closed = 1;
nodes = (
(30,6,l),
(30,109,l),
(-8,146,o),
(-37,182,o),
(-78,213,c),
(-78,6,l)
);
}
);
width = 30;
}
);
metricRight = "=0";
},
